<svg viewBox="0 0 435 452" preserveAspectRatio="xMidYMin slice" xmlns="http://www.w3.org/2000/svg" fill-rule="evenodd" clip-rule="evenodd" stroke-linejoin="round" stroke-miterlimit="1.414"><g fill-rule="nonzero"><path d="M348.107 288.168v.126c.033.008.057-.008.081-.008-.024-.032-.04-.077-.08-.118m1.036.644c.458.065.98 0 1.454 0 .271 0 .454 0 .656-.097.207-.077.381-.259.547-.304.514-.125 1.037.162 1.495.17.097.726-.045 1.224.477 1.843.377.47.867.976 1.264 1.418.571.571 1.154.77 1.916.77.539-.017 1.02-.017 1.563-.158.438-.106 1 .076 1.361-.207.239-.194.365-.648.523-.923.141-.284.854-2.953 1.012-2.953 1.126 0 1.916-1.09 2.653-1.531-1.83-.28-2.422-.162-3.949-1.17-1.328-.912-2.58-1.058-4.24-.867-3.014.3-4.448 3.706-7.688 3.483.093.138.15.287.3.389.065.04.575.137.656.137" fill="#333132"/><path d="M420.585 296.73c-.745.54-1.652.806-2.373 1.337-.746.539-1.288 1.345-2.025 1.887-.75.519-1.37 1.215-2.11 1.734-.73.514-1.568.903-2.289 1.43-.75.53-1.778.644-2.515 1.154-.737.547-1.264 1.401-2 1.928-.722.538-1.289 1.284-2.026 1.81-.753.507-1.51 1.013-2.248 1.54-.75.522-1.81.595-2.555 1.121-.717.519-1.43 1.082-2.175 1.62-.733.527-1.32 1.292-2.058 1.799-.798.558-1.677.98-2.475 1.547-.765.563-1.437 1.296-2.24 1.859-.78.57-1.453 1.3-2.243 1.875-.802.55-1.98.563-2.762 1.158-.774.555-1.272 1.531-2.066 2.074-.798.567-1.596 1.118-2.39 1.68-.781.56-1.405 1.382-2.182 1.917-.782.583-1.81.785-2.593 1.369-.712.494-1.425.988-2.106 1.486-.696.526-1.543.83-2.231 1.336-.689.51-1.272 1.175-1.969 1.69-.696.514-1.393 1.032-2.082 1.559-.692.49-1.478.907-2.174 1.405-.657.514-1.232 1.227-1.92 1.734-.689.498-1.402 1.012-2.098 1.522-.705.495-1.576.754-2.268 1.28-.73.551-1.11 1.616-1.86 2.175-.736.571-1.648.9-2.38 1.475-.746.562-1.345 1.356-2.09 1.931a100.21 100.21 0 01-2.232 1.681c-.742.563-1.81.669-2.568 1.207-.754.543-1.434 1.183-2.224 1.705-.77.527-1.425 1.207-2.199 1.701-.802.507-1.782.636-2.58 1.086-.814.421-1.36 1.272-2.15 1.766-.762.445-1.584.846-2.317 1.405-.73.58-1.52 1.065-2.208 1.66-.712.612-1.219 1.475-1.923 2.054-.689.604-1.677.859-2.39 1.454-.721.583-1.462 1.167-2.2 1.766-.72.583-1.47 1.138-2.182 1.738-.73.55-1.337 1.312-2.082 1.895-.717.55-1.454 1.175-2.2 1.717-.74.547-1.47 1.159-2.227 1.701-.745.543-1.782.68-2.564 1.211-.745.519-1.462 1.082-2.215 1.6-.745.519-1.401 1.15-2.126 1.681-.721.514-1.576.887-2.305 1.434-.733.506-1.446 1.09-2.183 1.624-.721.555-1.195 1.446-1.912 1.997-.729.546-1.519.988-2.248 1.514-.49.349-.955.758-1.425 1.143-.118-.037-.243-.05-.426-.073-.53-.04-1.085-.045-1.583.064-.45.122-.806.446-1.179-.024-.11-.117.033-.198-.125-.32-.033-.004-.324-.044-.397-.044-.393-.065-.839-.04-1.24-.122-.461-.057-.927-.093-1.385-.162-.453-.073-.862-.34-1.296-.364-.538-.017-.992.052-1.49-.04-.417-.078-.806-.07-1.223.125-.175.044-.166.178-.39.145-.538-.1-.595-.996-1.186-.907-.58.085-.98.029-1.434-.235-.522-.3-.773-.413-1.344-.069-.701.414-1.693.701-2.507.563-.466-.064-.932-.064-1.377-.064-.782 0-1.43-.547-2.228-.43 0 .065-.024.106-.032.17-.19.081-.381.065-.555.15-.19.085-.134.312-.458.26-.364-.045-.603-.434-.944-.515-.384-.101-.83.004-1.223 0-.47-.032-.927-.065-1.353-.044-.68-.033-1.324.109-1.988.048-.506-.036-1.013-.105-1.51-.162-.434-.06-.9-.348-1.321-.348-.45-.012-.721.385-1.138.506-.49.142-1.037-.02-1.527.06-.474.11-.932.045-1.41.058-.385.052-.725.08-1.09.13-.27.117-.49.032-.753.181-.348.085-.781-.27-1.146-.311-.364-.037-.547.08-.903.222-.21.134-.514-.073-.75-.097-.206.065-.323.105-.538.162-.182.065-1.519.227-1.693.324-.174.053-.267.162-.474.203-.255 0-.482 0-.737.121-.142 0-.539-.024-.632.162-.024 0-.024 0-.024.077.049.114.571.081.672.114.19-.033.349.036.515.089.465-.013.887-.04 1.36-.013.624-.072 1.252-.052 1.892-.072.45-.033.887 0 1.353.044.417.04.923-.036 1.336.15.349.158.6.591 1.02.624.402.012.766-.183 1.155-.304.421-.105.705-.057 1.122-.04.462.052.911.12 1.385.178.215.08.45.08.64.145.174.077.28.17.438.158.409-.02.798.442 1.178.543.41.122.863.016 1.304.016.657 0 1.288-.137 1.932-.08.037.202-.04.429.085.59.175.248.247.102.474.183.49.154.944.182 1.45.182.697-.032 1.215.498 1.888.328.611-.146 1.036-.636 1.689-.453.648.17.708.968 1.287 1.235.482.247 1.588.409 2.16.364.562-.06 1.093-.04 1.676.017.008.441.49.785.879.903.474.15.956-.012 1.421.13.365.117.588.336.96.368.665.053 1.454-.198 1.527.737 0-.178.624.288.648.288.251.133.555.222.83.332-.222.291-.449.591-.728.794-.75.542-1.596.91-2.366 1.437-.725.523-1.644.839-2.39 1.373-.74.51-1.336 1.288-2.06 1.815-.612.409-1.188.838-1.783 1.26-.292-.24-.417-.673-.757-.875-.381-.215-1.053-.138-1.45-.345-.369-.226-.543-.676-.932-.89-.413-.227-.745-.51-1.138-.705-.389-.211-.863-.04-1.235-.26-.255-.125-.539-.522-.656-.77-.098-.177.008-.218-.175-.34-.275-.165-.656.013-.943.037-.292.012-.527-.077-.83-.202-.401-.179-.717-.454-1.13-.648-.434-.195-.782-.462-1.195-.624-.88-.401-1.446-.814-2.45-.92-1.005-.085-.34-.352-.985-.903-.49.507-1.976.227-2.568.11-.627-.102-2.24-.9-2.207-1.673-.324.182-.563-.085-.863-.15-.465-.069-.911.065-1.369-.057-.441-.105-.988.017-1.454-.085-.461-.097-.822-.486-1.284-.579-.457-.097-1.012.207-1.486.105-.441-.076-.806-.563-1.264-.656-.47-.077-.976.033-1.441-.056-.482-.061-.964-.02-1.43-.073-.446-.053-.903.235-1.345.162-.397-.09-.952-.288-1.332-.41-.15-.04-.268-.153-.385-.206-.15-.077-.34-.117-.454-.194-.085-.085-.036-.247-.186-.272-.113-.04-.28.025-.373.025-.611.117-1.26.056-1.867.117a11.5 11.5 0 00-.777.069c-.3.02-.576-.024-.847.065a4.175 4.175 0 01-.923.113c-.58-.012-1.138-.113-1.718-.089-.247 0-.283.069-.473.146-.438.186-.896.243-1.361.287-.624.061-1.236.085-1.851.223-.349.081-.656.235-.997.284-.255.024-1.535.044-1.243.441.174.24.729.134.988.219.28.085.446.324.762.38.45.126.964.09 1.413.223.778.207 2.041.713 2.82.24-.025.388.023.4.258.619.624.608 1.276.737 2.033 1.045 1.013.4 1.96.92 3.079.968-.025.705 1.595.198 2.09.239.218.603-.523 1.478.336 1.932.437.235 1.02.077 1.498.154.733.117.717.623 1.296 1 .357.231.673.539 1.029.782.373.255.996.25 1.353.49.364.271.656.55.996.814.41.324.964.08 1.527.182-.057-.02.11.822.19.92.07.121.292.17.41.291.089.106.089.263.198.385.458.575 1.503.421 1.827 1.122.032.11-.077.304.008.393.113.113.307-.004.445.052.227.085.195.183.324.349.158.239.348.405.393.713.09.494.19.927.324 1.36.09.312.04.41.405.515.689.21 1.32-.07 1.677.68.158.344.206.725.514.992.587.54 1.07.527 1.22 1.394.084.437.084.903.348 1.28.206.303.506.494.806.664-.357.389-.697.782-1.106 1.09-.745.538-1.632.834-2.357 1.372-.721.563-1.333 1.276-2.066 1.84-.737.562-1.66.906-2.398 1.477-.753.584-1.478 1.159-2.215 1.734-.737.571-1.312 1.377-2.057 1.936-.725.587-1.544 1.077-2.293 1.652-.514.39-1.037.774-1.551 1.155-.033-.11-.04-.231-.118-.312-.166-.162-.579-.126-.729-.308-.109-.138-.016-.247-.1-.36-.122-.227-.365-.361-.58-.487.182-.303-.049-.49-.182-.765-.174-.324-.6-.725-.758-.96-.206-.539-.271-.903-.453-1.215-.292-.522-.401-1.061-.83-1.478-.418-.466-.543-.895-.393-1.551.085-.365.133-.657-.025-.968-.08-.15-.28-.308-.364-.499-.049-.13.016-.316-.11-.417-.239-.23-.579.138-.854.033-.348-.122-.636-.782-.847-1.058-.206-.267-.388-.336-.445-.684-.033-.166.032-.312-.024-.47-.029-.182-.15-.125-.175-.364-.036-.567.405-.83-.02-1.394-.304-.388-.794-.558-.935-1.077-.183-.182-.05-.713-.243-.859-.175-.283-.264-.64-.43-1.101-.214-.28-.615-.41-.79-.818-.595-.369-1.186-1.507-1.94-1.556-.125-.502-.15-1.024-.259-1.535-.105-.502-.579-.79-.822-1.263-.223-.304-.158-.612-.373-.916-.198-.328-.413-.45-.607-.66-.199-.247-.486-.575-.73-.753-.299-.223-.72-.24-1.028-.474-.134-.093-.206-.332-.308-.405-.223-.13-.713.016-.96-.045-.012-.36 0-.757 0-1.134 0-.182.033-.4 0-.59-.028-.422-.085-.374-.506-.584-.393-.203-.692-.276-.94-.697-.109-.186-.093-.283-.291-.393-.365-.214-.839-.06-1.203-.214-.373-.138-.595-.592-.936-.794-.283-.178-.498-.442-.798-.624-.174-.101-.348-.142-.514-.239a14.606 14.606 0 01-.624-.506c-.064-.057-.1-.122-.166-.182-.222-.195-.555-.308-.83-.466-.332-.223-.603-.66-.996-.75-.142-.036-.272.029-.405.029-.839.06-1.778-.045-2.58.105-.26.033-.498.154-.774.166-.413.029-.838 0-1.26 0-.376 0-.765 0-1.138-.077-.538-.097-1.113-.595-1.676-.441-.19.057-.26.235-.45.28-.405.105-1.012.04-1.434.06-.457.004-.717-.178-1.154-.263-.251-.049-.547 0-.822 0-.26-.02-.523-.077-.798-.069-.207.012-.547.012-.689.138-.279.255.19.372.34.567.142.308.284.579.434.664.126.267-.04.58.065.948.125.218.243.498.372.62.085.3.523.3.624.676.085.3.142.587.174.862.077.422-.158.547-.073.839.049.235.333.534.373.935.081.22.365.478.43.774.036.227-.39.62-.313.964.017.26.349.304.454.498.126.19.093.43.174.656.061.114.183.101.219.215.008.08-.036.17-.016.243.056.198.016.283.206.425.174.186.462.097.596.308-.114.117-.28.134-.413.239-.085.121-.142.304-.215.441-.085.162-.235.349-.251.551-.008.26.198.336.223.58.028.38-.324.947-.304 1.218.016.292.073.725.08 1.11.017.101.134.575.102.964 0 .235 0 .547.032.725.009.348-.234.75-.267 1.175.016.4.583.6.539 1.057.052.23-.097.595-.122 1.004 0 .401-.348.754-.206 1.207.065.207.239.26.304.519.109.45-.057 1.069-.19 1.498-.074.263-.39.571-.39.85-.008.365-.158.762-.206 1.236-.029.271-.243.814-.134 1.065.134.276.53.316.616.628.065.235-.045.498.016.757.073.288.304.47.312.79.012.045-.215.231-.223.328-.04.166.174.454.101.689-.016.056-.623.356-.688.466-.21.21-.401.486-.442.797-.1.657.413 1.17.268 1.872-.017.198-.592.777-.616 1.121-.065.397-.101.887-.085 1.025-.138.806.409 1.252.34 1.616-.024.247-.603.891-.644 1.272-.085.55-.283.826-.348 1.474-.045.292.356.952.514 1.175.215.283.656.364.81.725.126.356-.263.506-.514.652-.38.198-.53.154-.563.6 0 .145.057.323-.008.481-.081.17-.316.227-.38.377-.086.19-.07.753-.094.956-.016.146-.024.368.008.506.032.178.15.292.19.441.077.369-.222.608-.287.9-.166.587-.19 1.065-.41 1.648-.15.385-.27.7-.473 1.065-.389.677-.296 1.357-.166 2.098.044.316.166.66.15.976-.025.397-.106.56 0 .924.117.384.384.636.316 1.077-.34.02-.83.417-1.013.7-.539.746-.271 1.086-1.292 1.135-.012.113 0 .25-.012.389-.689-.482-1.349-1.025-2.05-1.523-.753-.527-1.494-1.033-2.24-1.584-.655-.482-1.486-.745-2.121-1.255a68.894 68.894 0 01-1.936-1.49c-.665-.491-1.378-.896-2.042-1.374-.737-.555-1.43-1.21-2.199-1.766-.75-.579-1.438-1.215-2.183-1.794-.753-.55-1.438-1.207-2.2-1.762-.773-.547-1.866-.644-2.624-1.187-.737-.558-1.466-1.158-2.215-1.729-.365-.247-.664-.571-.972-.895.044-.263.069-.539.186-.77.182-.356.652-.62.81-.98.174-.352.559-.652.741-.988.174-.352-.04-.838.122-1.174.178-.353.575-.628.733-.98.19-.357.125-.774.3-1.13.198-.337.38-.705.554-1.042.175-.344.215-.77.405-1.093.243-.506.948-.624 1.248-1.167.324-.538.239-.826.089-1.389-.126-.429-.58-1.057-.239-1.519.332-.514.96-.117 1.41-.441.315-.207.348-.774.514-1.118.243-.595.697-1.11.996-1.697.174-.372.741-.591.924-.964.166-.348.287-.725.445-1.061.292-.591.308-1.11.733-1.689.324-.421.478-.761.571-1.324.24-1.325.515-.85 1.677-1.013a1.94 1.94 0 00.04-.903c-.064-.36-.3-.543-.388-.907-.166-.53.223-.956.397-1.414.275-.729-.92-1.616.364-1.924.41-.1.648.04.964-.303.3-.284.58-.847.737-1.228.219-.477.507-1.271.648-1.761.118-.418-.089-.742-.024-1.13.077-.401.49-.567.514-.916.049-.514-.45-.538-.579-.838a1.326 1.326 0 010-.733c.737-.053 1.742-.365 2.05-1.154.141-.365-.158-.823-.025-1.18.15-.38.199-.769.34-1.113.15-.4 1.054-1.272.665-1.73-.037-.048-.077-.072-.126-.125-.25-.154-.729.02-1.012 0-.539 0-1.09-.105-1.612-.162-.312-.053-.612-.162-.904-.219-.324-.04-.631.106-.947 0-.247-.08-.247-.32-.438-.396-.166-.065-.235.012-.388.012-.45.04-.9.174-1.357.202-.555 0-.843-.425-1.394-.543-.287-.06-.737-.121-.996.017-.23.121-.316.388-.49.538-.174.17-.364.397-.539.53-.372.224-.672.536-1.036.783-.572.433-1.378.392-1.702 1.134-.064.13-.085.283-.117.4-.138.39-.122.483-.539.515-.522.036-1.077-.186-1.668-.126-.073.624.04.624-.413 1-.333.28-.434.742-.758 1.025-.34.276-.895.377-1.227.665-.34.275-.932.36-1.272.644-.32.275-.413.745-.729 1.028-.389.34-.57.806-.952 1.183-.21.207-.307.23-.457.494-.34.506-.357.822-.426 1.414-.307-.04-.372.243-.579.393-.23.145-.417.105-.713.125-.433 0-.907.231-1.223.527-.13.117-.206.28-.364.388-.199.142-.438.175-.62.333-.616.526-1.025 1.174-1.486 1.782-.507.631-.9.08-1.588.19-.855.122-.34 1.247-.413 1.746-.11.802-1.037.603-1.503 1.101-.275.312-.364.754-.648 1.065-.283.304-.846.462-1.122.798-.502.51.085 1.58-.47 2.123-.481.486-1.43.19-1.944.77-.287.32-.133.846-.413 1.162-.275.328-.575.611-.838.935-.275.34-.9.474-1.179.786-.198.239-.356.526-.546.765-.02-.012-.045-.012-.077-.02-.738-.522-1.402-1.134-2.127-1.64-.745-.53-1.284-1.37-2.013-1.855-.708-.539-1.494-.956-2.243-1.495-.754-.526-1.653-.777-2.398-1.304-.539-.389-1.138-.696-1.717-1.025.239-.076.465-.19.648-.429.271-.348.316-.883.603-1.195.442-.49 1.098-.684 1.628-1.09.498-.396.58-1.15 1.037-1.595.15-.154.656-.32.721-.417.235-.304.117-.81.356-1.154.458-.673.924-.401 1.596-.401.956 0 1.66-.482 2.438-1.033.349-.26.393-.766.733-1.017.373-.239.754-.457 1.118-.717.36-.218.94-.239 1.296-.506.34-.235.798-.368 1.163-.607.364-.24.364-.847.737-1.074.377-.218.879-.324 1.24-.555.497-.307.951-.83 1.474-1.02.498-.19.874-.029 1.206-.551.175-.267.207-.401.304-.644.102-.251-.048-.494.365-.474.036-.194.036-.4.044-.583 1.385.6 3.641-.336 4.889-.952.43-.198.62-.644 1.029-.846.397-.175.846-.304 1.235-.507.389-.17.972-.117 1.486-.263.45-.138.79-.6 1.276-.75.49-.145.94-.335 1.365-.514.498-.178.847-.42 1.166-.668.195-.166.385-.304.568-.45.15-.157.238-.222.064-.364-.34-.255-.951-.049-1.312-.097a28.253 28.253 0 00-1.567-.182c-.381-.045-.612-.183-.912-.28-.3-.13-.72-.052-1.073-.077-.324-.008-.498.057-.818.11-.608.13-1.28.044-1.92-.073-.397-.065-.798-.012-1.187-.106a3.383 3.383 0 00-1.21-.016c-.434.057-.839.26-1.264.296-.247.028-.462-.057-.68-.081-.175-.029-.365 0-.556-.02-1.053 0-1.644 1.23-2.547 1.628-1.045.437-2.175-.401-3.3-.09-.467.126-.71.649-1.139.81-.45.122-.964.122-1.397.268-.438.134-1.053.012-1.49.174-.426.162-.64.668-1.074.85-.43.183-.847.313-1.292.499-.425.182-.87.312-1.272.486-.43.19-.863.332-1.284.526-.4.17-.89.28-1.296.462-.68.332-1.344.952-2.074 1.3-.433.199-1.08.32-1.405.64-.215.227-.089.53-.437.766-.551.409-1.24.158-1.867.271-.499.105-1.122.417-1.572.624-.405.235-.474.826-.887 1.053-.539.28-1.227.056-1.685.575-.206.223-.093.158-.19.417-.11.356-.065.806-.389 1.057-.49-.19-.474-.563-1.122-.316-.539.227-.879.551-1.502.596-.523.024-1.062-.13-1.592.004a1.9 1.9 0 00-.219.113c-.672-.55-1.061-1.486-1.774-1.989-.725-.518-1.669-.737-2.41-1.251-.729-.523-1.575-.887-2.329-1.39a24.92 24.92 0 01-1.121-.87c.198-.126.396-.251.631-.324.43-.178.972-.081 1.418-.24.158-.044.559-.14.64-.303.117-.17-.101-.336.08-.486.053-.077.467-.077.568-.11.142-.028.263 0 .405-.048.032-.004.04-.186.125-.227.3-.137.624.029.94.04.365.013.802-.064 1.126-.177.433-.134.774-.486 1.211-.612.267-.08.527-.117.79-.178.283-.057.389-.008.45-.284.04-.145.57.102.635.102.235 0 .64-.154.883-.227.762-.219 1.203-.689 1.875-1.045.207-.134.264-.154.596-.154.409.012.838.012 1.272.012.563 0 .773-.065 1.251-.336 1.138-.632 2.41-.632 3.613-.952.239-.077.413-.25.648-.32.587-.13 1.21-.21 1.79-.287.417-.049 1.037-.551 1.385-.478-.28-.774.393-.535.94-.58.895-.072 1.875.09 2.73-.084.45-.11.923-.17 1.393-.26.45-.089.863-.352 1.32-.441.45-.093.964-.057 1.422-.15.105-.02.968-.23.968-.251.008-.377-.762-.324-.992-.377-.474-.077-.973-.085-1.43-.162-.49-.077-.964-.097-1.438-.182-.389-.02-1.037-.126-1.401-.3-.24-.133-.413-.514-.737-.328-.15.101-.15.251-.292.336-.158.102-.587.025-.77 0-.36-.048-.708-.198-1.073-.222-.656-.053-1.304.024-1.94.08-.466.057-.94.013-1.413-.012-.43-.044-.612-.105-.977-.287-.234-.158-.534-.02-.7-.336-.446.133-.887.117-1.17.441-.138.182-.05.195-.28.276-.515.206-1.061-.057-1.612.052-.474.073-.952.255-1.458.28-.385.02-.774-.045-1.163 0-.441.077-.538.441-.915.603-.397.227-1.26.04-1.701.04h-1.07c-.902 0-1.802-.007-2.705-.04-.15 0-.283 0-.433.065-.166.073-.28.255-.474.324-.255.077-.563.085-.818.093-.847.045-1.969.045-2.75.389-.571.26-.952.425-1.608.26-.207-.066-.53-.284-.733-.3-.349-.029-.68.42-.984.583-.393.206-.924.34-1.398.417-.57.11-1.17.182-1.725.385-.182.048-.324.145-.506.117-.231-.024-.357-.275-.596-.32-.218-.036-.482.045-.688.162-.21.09-.385.09-.592.146-.08.028-.158.093-.247.158-.607-.458-1.215-.936-1.859-1.401-.733-.527-1.604-.839-2.349-1.35-.725-.526-1.563-.923-2.284-1.45-.705-.518-1.146-1.4-1.867-1.91-.737-.527-1.71-.665-2.422-1.175-.709-.515-1.62-.79-2.333-1.292-.689-.515-1.272-1.215-1.977-1.734-.729-.514-1.583-.838-2.288-1.349-.741-.526-1.09-1.58-1.802-2.085-.73-.507-1.612-.746-2.333-1.252-.713-.506-1.312-1.187-2.041-1.693-.705-.506-1.584-.798-2.309-1.316-.122-.085-.215-.199-.324-.292.182.033.369.081.55.06.81-.088.738-.412 1.094-1.024.276-.45.065-.368.616-.445 1.312-.174 2 1.247 3.135 1.62.883.3 1.875.032 2.758.044.794.025 1.648-.206 2.629-.36.878-.134 1.737-.215 2.571-.474.964-.283 2.102-.09 2.75-.547.68-.486.887-1.535 1.467-2.15.59-.608 1.223-1.232 1.927-1.697.673-.474 1.426.364 2.098.182.705-.207 1.382-.466 2.16-.709a9.816 9.816 0 002.04-.911c.649-.425 1.297-.839 1.884-1.325.615-.49.94-1.292 1.502-1.79.426-.38 1.503-.385 2.066-.964.506-.522.45-1.693.988-2.134.624-.494 1.58-.11 2.208-.182.858-.106 1.697-.094 2.758-.26 1.029-.17-2.783-1.9 2.462-1.036.867.141 1.264-1.297 2.042-1.872.664-.486 2.535 1.236 3.313.827.757-.422 1.401-1.163 2.199-1.454.846-.3 1.85 0 2.665-.094.935-.1 1.758.094 2.62.34.867.207 1.786.317 2.673.487.774.137 1.535.664 2.309.72.782.045 1.592-.765 2.357-.753.782 0 1.56.458 2.35.413.781-.012 1.55-.295 2.34-.348.786-.04 1.535-.352 2.313-.4.774-.037 1.596.598 2.373.598.782-.012 1.556-.056 2.333-.024.774.024 1.543.012 2.325.114.855.105 1.677.55 2.523.64.88.097 1.726.153 2.588.226.839.085 1.754-.441 2.6-.388.863.044 1.702.652 2.548.72.863.013 1.717-.473 2.588-.437.863.028 1.726.158 2.584.162.855.028 1.734-.239 2.58-.239.847 0 1.701.162 2.564.138.863-.02 1.733.158 2.596.15.855-.049 1.701-.17 2.56-.203.854-.044 1.717-.11 2.58-.158.862-.048 1.685-.563 2.54-.632.838-.069 1.757.555 2.563.365.806-.223 1.62-.527 2.398-.794.773-.292 1.55-.644 2.316-.92.766-.295 1.345-1.158 2.143-1.397.794-.235 1.71.057 2.547-.02.815-.13 1.661.037 2.455-.11.798-.129 1.571-.453 2.381-.603.79-.15 1.54-.547 2.341-.7.806-.175 1.527-.547 2.325-.725.798-.166 1.685.06 2.483-.126.79-.158 1.608-.247 2.406-.417.773-.154 1.575-.154 2.39-.304.846-.142 1.676-.43 2.523-.616.838-.19 1.62-.62 2.434-.858.818-.223 1.616-.571 2.438-.822.814-.251 1.677-.39 2.483-.648.83-.272 1.616-.535 2.43-.806.814-.26 1.644-.454 2.474-.713.798-.28 1.677-.328 2.5-.592.813-.247 1.474-1.036 2.296-1.26.79-.226 1.519-.505 2.276-.789.761-.287 1.685-.125 2.438-.409.725-.283 1.47-.539 2.252-.765a40.19 40.19 0 012.106-.56c.705-.145 1.28-.915 2.001-1.056.705-.158 1.535.283 2.24.1a21.99 21.99 0 002.102-.623c.802-.271 1.693-.36 2.478-.648.782-.324 1.596-.583 2.382-.92.782-.311 1.373-1.097 2.15-1.441.766-.357 1.742-.308 2.5-.664.753-.36 1.486-.802 2.24-1.191.757-.385 1.247-1.288 2-1.713.737-.39 1.527-.71 2.248-1.139.79-.453 1.677-.733 2.515-1.11.822-.376 1.693-.66 2.556-1.012.838-.336 1.786-.389 2.624-.733.855-.348 1.628-.875 2.467-1.26.822-.38 1.758-.627 2.547-1.08.673-.373.944-1.503 1.616-1.84.697-.332 1.463-.583 2.16-.883.712-.287 1.66-.012 2.364-.287.442-.166.798-.563 1.163-.924.587-.137 1.097-.409 1.693-.635 1.045-.405 2.167-.567 3.305-.689.968-.122 1.907-.203 2.827-.401.806-.19 1.596-.23 2.325-.23.631 0 .631-.07 1.271-.07.88.012 1.766.199 2.673.174.887-.036 1.799-.036 2.698-.174 1.029-.162 2.05-.28 3.054-.332 1.02-.044 2.041-.198 3.11-.214h.073c.118.02.243.06.369.06.113 0 .222-.044.316-.065.62 0 1.219 0 1.83-.012.839-.032 1.713.077 2.576 0 .887-.089 1.64-.526 2.382-.749.324-.097.68-.162 1.028-.227.033-.004.065-.004.106-.02.133-.024.267-.036.409-.065.705-.097 1.51.061 2.333.02.822-.052 1.583-.368 2.365-.558.68-.154 1.482-.102 2.122-.41.442-.218.705-.64 1.09-.927.474-.38 1.126-.401 1.591-.766.284-.198.442-.724.798-.895.713-.417 1.96-.328 2.795-.473.782-.122 1.604-.065 2.402-.187.952-.137 1.98-.214 2.896-.547.579-.19 1.154-.733 1.859-1.13.587-.324 1.304-.55 1.907-1.012.575-.433.932-1.122 1.414-1.665.154-.158.271-.263.413-.393a6.89 6.89 0 01.87-.376c.79-.26 1.596-.426 2.406-.588.782-.157 1.604-.17 2.435-.263.822-.06 1.636-.218 2.462-.218.822 0 1.628.157 2.459.186.822.032 1.636.093 2.466.17.822.065 1.657.113 2.47.206.823.102 1.694-.206 2.492-.093.955.138 1.7.6 2.19.985.657.486 1.264 1.194 1.434 1.976.142.7-.668 1.576-.643 2.382.016.76.056 1.798.643 2.203.673.219 1.677-.527 2.196-1.236.47-.64.502-1.64.826-2.454.3-.77.838-1.503 1.029-2.325.186-.846-.17-1.782-.09-2.58.102-.895.458-1.75.434-2.45-.008-.932.08-1.936-.186-2.766-.256-.843-.968-1.576-1.41-2.341-.437-.75-.98-1.475-1.551-2.183-.539-.685-1.203-1.292-1.827-1.932-.607-.644-1.037-1.507-1.66-2.123-.689-.648-1.75-.648-2.5-1.012-.801-.365-1.599-.462-2.478-.612-.863-.166-1.66-.672-2.564-.737-.883-.073-1.77-.012-2.632-.093-.754-.089-1.41-.559-2.11-.842a11.38 11.38 0 00-.977-.742 13.692 13.692 0 00-2.357-1.121c-1.004-.369-1.895-.851-2.45-.916-.911-.121-1.851-.312-2.787-.709-.87-.36-1.778-.725-2.6-1.186-.49-.292-.806-.83-1.292-1.114a27.122 27.122 0 00-1.677-1.013c-.696-.384-1.612-.502-2.434-.761-.777-.26-1.608-.284-2.454-.401-.847-.126-1.669-.462-2.475-.425-1.012.036-2 .024-3.005-.025-.988-.02-2 .15-3.038.098-.814-.061-1.64-.381-2.478-.413-.814-.05-1.653-.05-2.507-.05-.806 0-1.637.288-2.45.284-.831-.016-1.637-.263-2.455-.295-.822-.033-1.669.06-2.475-.004-.838-.085-1.644-.308-2.45-.442-.855-.166-1.649-.538-2.503-.745-.859-.21-1.693-.45-2.507-.745a38.5 38.5 0 01-2.426-.976c-.839-.381-1.669-.648-2.382-1.07-.745-.47-1.502-.866-2.248-1.255-.781-.401-1.486-.907-2.247-1.252-.774-.384-1.67-.461-2.443-.806-.753-.316-1.47-.696-2.24-.94a25.708 25.708 0 00-2.349-.668c-.797-.182-1.595-.473-2.413-.583-.815-.085-1.637-.23-2.467-.259-.182-.008-.373.028-.547.04-.182-.036-.364-.08-.538-.105.23-.247.437-.324.62-.652.283-.51.506-.952.607-1.519.065-.356.142-.518.38-.79.199-.214.397-.477.555-.712.203-.268.211-.482.36-.814.556-1.284.604-2.71.993-4.055.324-1.065.98-1.409 1.422-2.345.514-1.036.952-2.073 1.393-3.118.38-.936.98-1.624 1.422-2.507.388-.737.546-1.426.688-2.236.114-.77.312-1.531.506-2.26.175-.64.39-1.175.721-1.701.316-.486.648-.984 1.013-1.54.43-.66.72-1.49 1.085-2.235.393-.773.814-1.486 1.264-2.142.445-.677.98-1.272 1.41-1.92.465-.664 1.012-1.227 1.47-1.871.45-.616.91-1.252 1.369-1.867.324-.41.648-.839.972-1.248.28.227.546.474.838.68.705.507 1.624.73 2.357 1.216.745.502 1.292 1.275 2.041 1.757.746.482 1.6.786 2.35 1.248.729.486 1.336 1.178 2.09 1.636.749.486 1.741.575 2.49 1.05.77.449 1.568.83 2.325 1.283.753.45 1.482.968 2.248 1.43.761.441 1.32 1.203 2.09 1.648.757.45 1.81.433 2.556.891.765.458 1.271 1.296 2.045 1.746.761.437 1.85.372 2.62.834.774.458 1.264 1.325 1.993 1.79.77.43 1.608.737 2.357 1.2.798.49 1.45 1.186 2.24 1.676.79.498 1.742.709 2.515 1.187.79.502 1.519 1.073 2.309 1.571.785.49 1.535 1.053 2.324 1.519.77.474 1.515 1.045 2.28 1.539.782.494 1.718.786 2.492 1.3.777.49 1.518 1.057 2.304 1.555.766.515 1.51 1.078 2.268 1.588.778.49 1.503 1.045 2.289 1.563.765.507 1.778.665 2.543 1.187.77.51 1.543 1.013 2.313 1.535.749.514 1.494 1.11 2.244 1.628.77.539 1.514 1.086 2.272 1.584.806.57 1.304 1.571 2.106 2.167.798.587 1.903.749 2.681 1.365.774.595 1.114 1.81 1.887 2.418.77.59 1.64 1.077 2.422 1.688.77.604 1.726.989 2.516 1.584.737.53 1.591.928 2.324 1.478.721.535 1.41 1.159 2.155 1.693.741.523 1.669.794 2.418 1.32.737.54 1.36 1.252 2.106 1.779.75.518 1.486 1.09 2.232 1.616.749.526 1.304 1.34 2.045 1.843.753.51 1.83.563 2.572 1.049.77.534 1.134 1.612 1.908 2.118.757.518 1.543.992 2.308 1.506.778.499 1.51 1.03 2.264 1.535.741.482 1.462.968 2.216 1.442-.636.434-1.284.863-1.9 1.305M104.846 333.49c-2 1.535-2.649 4.01-3.985 6.014-.604.904-1.094 1.855-1.851 2.661-1.037 1.13-2.414.997-3.427 1.766-.952.7-3.41 4.99-3.163 6.298h.036c-.068.053-.125.101-.19.15-.3.215-.567.43-.915.567-.247.11-.571.077-.79.21-.113.074-.113.256-.198.313-.357.247-.83.324-1.22.587-.797.563-1.644 1.219-2.673 1.425-1.875.373-3.807.798-5.686 1.025a1.717 1.717 0 01-.357.093l.009.004c-.952.183-1.64.515-2.512 1-1.04.564-2.045 1.078-3.187 1.13-1.754.045-3.536.228-5.298.195-1.55-.044-3.592-.409-4.97-1.178-.655-.365-1.153-.79-1.733-1.248-.25-.223-.465-.611-.773-.753-.3-.13-.887 0-1.203 0-.523.008-.583.17-1.013.304-.372.162-.862.085-1.247.162-.421.064-.786.214-1.211.352-.689.219-1.353.13-2.066.23-.498.106-.972.28-1.41.507-.34.162-.44.344-.688.55-.64.47-1.676.503-2.385.807-.936.417-1.956.502-2.88.895-.77.3-1.345.838-2.223.96-.272-.36-.499-1.175-1.045-1.47-.54-.328-1.37.032-2.107-.094-.607-.109-1.206-.797-2-.797-.717 0-1.438.563-2.119.623-.838.11-1.684-.235-2.19-.105-.507.134-1.094.215-1.576.43-.434.202-.774.664-1.231.765-.381.097-.794.069-1.167.162-.838.202-1.737.125-2.608.125-.863 0-1.717.098-2.54-.226-.538-.215-.538-.644-1.162-.851-.721-.235-.604-.688-.822-1.41-.09-.259-.174-.737-.296-.963-.174-.276-.417-.45-.559-.839-.158-.421-.089-1.024-.413-1.324-1.17-1.154-1.446.158-3.13.263-.454.037-.944.081-1.394.081-.798 0-1.575-.324-2.309-.38-.777-.094-1.6.056-2.312-.118-1.677-.389-4.285-1.28-3.892-3.52.113-.611.546-.81 1.012-1.097.413-.26.737-.664 1.179-.85.563-.26 1.21-.053 1.798-.183.75-.182 1.422-.595 2.126-.794.713-.166 1.345-.688 2.09-.85.093-.017.174.372.268.36 1.377-.247 2.24-.883 2.68-2.159.223-.64.596-1.138 1.021-1.668.324-.397.887-1.057.215-1.454-.308-.211-.757-.085-1.085-.247-.252-.11-.45-.41-.701-.572-.271-.15-.397-.121-.628-.4-.6-.75-1.336-1.139-2.333-1.139-.94 0-1.733.819-2.381 1.041-.174.037-.417-.384-.56-.352-.42.012-.83.55-1.283.55-.75 0-1.414-.388-2.066-.46-.765-.102-2.15-.18-2.175-1.05-.024-.506.073-.725-.198-1.247-.186-.401-.575-.766-.725-1.195-.134-.446-.09-1.029-.199-1.531-.089-.466-.238-.75-.238-1.252 0-.13 2.183-.777 2.422-.907.664-.312 1.271-.676 1.915-1.029.664-.388 1.361-.615 2.094-.854.839-.263 1.608-.709 2.446-.972 1.037-.336 2.026-.312 2.738-.697.774-.454 1.033-1.142 1.422-1.863.397-.778.782-1.308.838-2.22.033-.522.09-1.093.223-1.611.085-.373.251-.652.166-1.041 0-.106-1.867-.535-2.082-.596-.631-.247-1.263-.652-1.968-.652-.838 0-1.636.482-2.232.624-.04.028-.182.364-.214.364-.717-.364-1.361-.7-1.272-1.607.065-.636.389-1.592.915-2.005.422-.345.887-.592 1.317-.932.522-.393 1.036-.624 1.51-1.061.56-.494.798-1.04 1.422-1.438.15-.089.348-.133.514-.227.462-.222.968-.42 1.487-.575.247-.06.506-.073.761-.117.316-.053.608-.13.924-.138.611 0 1.077-.117 1.591-.271.158-.045.316-.085.507-.15.91-.28 2.223-.559 3.17-.336.657.162 1.07.356 1.653.101h.025s0-.004-.008-.004c.105-.045.19-.073.311-.138.891-.607.126-1.227.51-2.22.341-.866.381-1.575.24-2.275-.19-.843-.648-1.418-1.163-1.985-.364-.425-.364-.786-.623-1.247-.256-.507-.499-1.13-.778-1.637-.182-.304-.243-.304-.267-.704-.017-.3.048-.612 0-.904-.081-.615-.316-.996.393-1.235.854-.283 1.83-.036 2.73-.304.785-.247 1.6-.065 2.421-.085.997-.024 1.892-.433 2.754-.53 1.013-.098 1.313.712 2.11.109.624-.527.572-1.839.778-2.608.26-.968.527-1.952.369-2.965-.101-.7-.498-1.32-.515-2.086-.008-.64-.235-1.349.454-1.705.365-.186.798-.194 1.211-.227.267-.032.527-.052.766-.121.696-.231 1.526-.231 2.247-.138.883.11 1.786.263 2.682.263.822 0 1.62-.004 2.357.012.806.04 1.596.211 2.365.288.798.085 1.596.117 2.373.28.75.17 1.47.481 2.208.745.624.23 1.263.441 1.883.664.616.235 1.207.563 1.819.798.757.287 1.92.101 2.523.636.251.226.441.55.733.77.34.242.713.424 1.045.64.539.356 1.235.68 1.843.89 1.393.539 2.904.377 4.321.709.349.105.567.182.863.409a5.884 5.884 0 002.017 1.13c.79.283 1.462.077 2.228.182.461.065 1.283.292 1.68.466.284.117.535.377.948.486.373.093.741.203 1.122.296.895.259 1.81.607 2.697.777.223.033.555 0 .762.098 0 0 .166.234.125.222 1.272.49 2.406.88 3.75.827.799-.045 1.552.243 2.326.17.607-.073 1.186-.215 1.802-.045 1.251.316 2.438.741 3.718 1 1.252.248 2.499.446 3.726.928 1.078.409 2.232.296 3.317.87.774.426 1.637.462 2.544.45.834-.024 1.632.057 2.479.093 1.004.065 2.073.041 3.086.158.393.049.7.09 1.09.09 1.486.02 2.911.882 4.414.85 1.07-.02 2.159-.085 3.244.032.365.053.838.15 1.203.057.996-.239 1.697-.81 2.782-.798 2.273.008 3.593-.607 5.618-1.377 2.2-.834 4.548-1.105 6.44-2.632 1.968-1.592 4.143-2.208 6.508-2.949 2.264-.692 4.29-1.77 6.489-2.572.45-.166 1.073-.073 1.462-.267.713-.356 1.098-1.207 1.859-1.547 1.138-.519 3.038-.466 4.249-.304.016.462-.009.911-.065 1.36-1.061.195-1.596 1.665-1.908 2.508-1.693 4.516-5.962 7.06-9.307 10.3-1.79 1.725-3.641 2.673-5.699 3.952-1.231.77-2.916 1.868-3.653 3.16-.68 1.174-.38 2.247-1.045 3.414-1.235 2.146-4.888 2.84-6.707 4.682-2.009 2.041-3.487 4.026-6.116 5.447-2.284 1.24-4.682 1.398-7.136 2.382-2.84 1.15-6.574 1.498-9.032 3.39M16.5 301.392c-.742-.526-1.754-.623-2.5-1.15-.74-.506-1.66-.794-2.397-1.3-.725-.498-1.122-1.503-1.86-2.009-.149-.117-.299-.235-.465-.352.64-.39 1.426-.604 2.058-1.05.72-.502 1.336-1.13 2.057-1.636.73-.518 1.272-1.284 2-1.79.722-.506 1.337-1.142 2.058-1.632.721-.518 1.454-.996 2.175-1.51.782-.552 1.726-.855 2.5-1.402.797-.527 1.842-.644 2.628-1.211.798-.547 1.571-1.118 2.34-1.677.783-.547 1.536-1.166 2.31-1.733.753-.539 1.251-1.487 2.04-2.078.774-.55 1.734-.834 2.508-1.393.798-.547 1.328-1.475 2.114-2.017.765-.567 1.685-.924 2.458-1.487.782-.538 1.629-.996 2.414-1.539.774-.559 1.361-1.389 2.127-1.94.713-.514 1.41-1.053 2.15-1.551.737-.506 1.685-.656 2.414-1.162.713-.499 1.519-.904 2.224-1.394.729-.506 1.162-1.401 1.875-1.907.75-.527 1.644-.73 2.373-1.248.71-.494 1.47-.94 2.192-1.446.708-.502 1.454-1.008 2.174-1.506.758-.527 1.264-1.442 2.05-1.98.773-.527 1.745-.766 2.499-1.293.781-.53 1.575-1.037 2.349-1.543.773-.55 1.336-1.401 2.11-1.948.761-.506 1.648-.875 2.382-1.422.777-.542 1.494-1.146 2.255-1.693.798-.559 1.592-1.11 2.374-1.689.773-.567 1.486-1.23 2.26-1.818.778-.535 1.385-1.349 2.163-1.944.765-.592 1.547-1.163 2.324-1.75.738-.58 1.552-1.061 2.317-1.624.778-.575 1.45-1.22 2.224-1.77.781-.555 1.875-.644 2.649-1.199.753-.55 1.283-1.462 2.049-2.005.778-.542 1.462-1.219 2.248-1.761.773-.56 1.81-.721 2.584-1.264.753-.523 1.741-.794 2.531-1.357.794-.567 1.535-1.17 2.32-1.737.783-.555 1.163-1.718 1.937-2.28.753-.543 1.826-.714 2.604-1.276.774-.523 1.487-1.203 2.3-1.75.778-.551 1.386-1.345 2.176-1.888.801-.534 1.842-.704 2.652-1.243.742-.486 1.32-1.251 2.07-1.737.636-.422 1.235-.956 1.851-1.426.486.409.984.798 1.56 1.158.64.519 1.336 1.211 2.04 1.519.722.34 1.637.385 2.358.794 3.6 1.592 3.426 4.528 3.337 7.53.024 3.43-.883 5.28 1.142 8.415.535.98 1.248 1.738 2.309 2.374 1.438.956 2.69 2.025 3.985 3.082.68.64 1.608 1.073 2.366 1.596a3.23 3.23 0 00-.041.623c.13 1.576-1.786 4.52-1.51 6.096.412 2.37-.734 4.75-.34 6.897.34 1.884 2.348 2.791 2.976 4.557.948 2.637-.952 3.01-1.22 5.306-.266 2.13.697 2.418 2.099 2.466 1.223 1.102 3.248 1.734 3.795 3.163.887 2.374-.632 4.249-1.908 5.914-1.547 1.984-2.235 3.017-2.531 5.864-.093.984 2.705 2.596 5.318 3.73-.664.19-1.329.353-2.001.624-1.551.616-3.196 1.098-4.804 1.604-1.255.38-2.571.55-3.835.81-1.75.356-2.973 1.15-4.613 1.79-2.442.936-4.824 2.15-7.396 2.754-1.012.247-2.159.596-3.203.669-1.41.13-2.374-.519-3.71-.689-.782-.105-1.584.162-2.358.118-.745-.098-1.518.016-2.276 0-.944 0-1.9.234-2.843.182-.932-.065-1.88-.11-2.783-.223-.927-.117-1.826-.45-2.754-.575-.923-.142-1.786-.798-2.705-.932-.766-.109-1.612.114-2.414-.024-.79-.121-1.547-.51-2.341-.672-.79-.138-1.612-.106-2.386-.284-.785-.174-1.482-.75-2.28-.931-.773-.207-1.733.259-2.507.064-.782-.206-1.584-.356-2.333-.59-.794-.191-1.393-1.034-2.167-1.264-.777-.211-1.51-.592-2.288-.835-.774-.23-1.56-.462-2.292-.7-.794-.244-1.608-.28-2.366-.523-.862-.263-1.85-.158-2.697-.45-.855-.295-1.677-.603-2.531-.907-.847-.287-1.661-.725-2.5-1.033-.842-.315-1.632-.777-2.47-1.077-.83-.344-1.551-.94-2.406-1.26-.838-.324-1.794-.303-2.649-.627-.846-.3-1.603-.883-2.458-1.074-.879-.218-1.83-.097-2.69-.218-.886-.085-1.798.259-2.685.206-.85-.024-1.721-.611-2.624-.611-1.005 0-1.835.494-2.799.222-1.077-.324-2.138-.239-3.228-.324-.822-.077-1.7.385-2.523.385-.04 0-.024-.202-.024-.202-1.03 0-1.965.064-2.5.388-.793.438-.49.207-.822.454-1.275.96-.834 1.102-.712 2.544.052.879-.126 1.745.008 2.531.142.81.846 1.332 1.353 2.11.433.741 1.17.66.708 1.985-.7.089-1.478-.138-2.385-.098-.822.02-1.701.05-2.548.098-.854.065-1.758.056-2.547.194-.871.195-1.637.818-2.341 1.183-.786.4-1.426.96-1.876 1.693-.405.656-.761 1.478-.785 2.487-.012.806.239 1.64.546 2.401.316.778.912 1.329 1.487 1.932.38.389.838 1.163 1.442 1.66.607.523.838.799.57 1.52-.032 0 .317.048.292.048-.453-.008-.887.231-1.336.458-.604-.41-1.22-.802-1.815-1.199-.74-.506-1.668-.778-2.385-1.304-.737-.519-1.592-.867-2.345-1.385-.741-.519-1.074-1.64-1.819-2.147a95.839 95.839 0 00-2.231-1.523m291.519-31.433c.773 0 1.676-.146 2.438.028.656.166 1.353.502 2.078.596.627.077 1.11.206 1.7.295 1.9.284 3.512 1.381 5.355 1.867.413.09.745.227 1.102.434.23.13.45.259.68.393.223.141.397.178.632.303.522.272.539.563.863.952.388.425.773.83 1.28 1.163.311.23.737.599 1.11.712.433.15.987.162 1.42.268.531.137 1.18.158 1.694.397.328.15.522.384.952.518 1.036.255 2.142.028 3.106.55.28.163.389.56.689.754 0 0 .49.203.461.187.203.056.385.085.656.085h2.058c.575.016 1.183.311 1.713.27.413-.036.438-.206.762-.299 1.02-.206 2.049.308 3.078.32.866 0 1.745-.291 2.624-.291 2.01 0 3.965-.397 5.999-.397 1.154 0 1.77-.102 2.717.62.794.574 1.442.331 2.382.291.911-.02 1.972-.154 2.96.065 1.013.227 1.884.822 2.665 1.231.523.288 1.098.482 1.612.765.523.312 1.005.665 1.543.968.657.365 1.3.847 1.993 1.183.68.348 1.385.66 2.13.915.75.26 1.734.39 2.45.248.422-.086.73-.138 1.163-.07.839.102 1.758.313 2.532.624.239.11.461.247.696.377-.4.069-.814.146-1.097.312-1.195.733-.88 1.401-1.17 2.616-.414 1.766-2.083 4.022-3.593 4.69-1.021.442-1.75.73-2.823.86-.588.072-1.584.031-2.159.173-.778.182-.903.442-1.782.53-1.045.05-2.183.025-3.188.256-1.146.247-4.24 1.956-4.62 3.05 2.72 1.292 5.99.113 8.812 1.332.997.426 2.248.94 3.127 1.726 0 .429.06.854-.23 1.207-.309.417-.928.757-1.378 1.04-.773.523-1.486 1.07-2.09 1.288-.725.247-1.494.333-2.227.43a8.82 8.82 0 01-2.208.044c-.166-.02-.198.187-.372.162-.632-.056-1.252.025-1.94.085-.584.053-1.17.118-1.855.418a5.005 5.005 0 00-1.831 1.385c-.45.461-.988.696-1.486 1.19-.847.83-2.143.697-3.245.758-1.43.097-2.774.514-4.192.765-.72.138-1.312.138-2 .365-.584.202-1.106.154-1.701.097-1.062-.097-2.285-.045-3.378-.04-.73 0-1.479.166-2.216.194-.915.02-1.928-.028-2.823.11-.141.024-.275-.025-.405 0-.133.06-.133.242-.283.275-.45.105-.915-.057-1.345.121-.348.15-.672.551-.98.64-.3.122-1.029.037-1.36.012-.77-.073-1.447-.587-2.151-.664-.296-.024-.47.122-.705.138-.697.085-1.462.024-2.175 0-.895 0-1.819.162-2.698.271-.729.073-1.486.709-2.09 1.077-.607.385-1.255.689-1.96.851-.064-.02-.113-.06-.174-.077-2.839-1.057-6.035.207-8.987-.324-1.551-.288-3.086-.271-4.658-.45-1.616-.174-3.333-.923-4.97-.684-1.802.275-2.482.976-4.017-.624-1.227-1.267-1.653-3.613-3.487-4.135-1.924-.547-6.23 1.11-6.955-2.28-.822-4.01 6.027-2.434 7.364-4.099 1.709-2.195-2.673-4.083-1.876-6.679.847-2.568 4.913-1.231 4.581-3.774-.198-1.503-1.567-2.022-.223-3.39.904-.916 2.524-.851 3.342-1.928 1.494-1.948-1.3-4.318-1.07-6.618 2.208-.567 3.76 1.21 5.468 2.324 1.02.644 3.978 3.431 3.868.66-.056-1.648-2.231-3.79-3.244-4.932-1.195-1.32-1.401-1.26-1.26-2.783.081-.875.373-1.863.665-2.673.968-.118 4.289.486 4.872-.158.154-.162.19-.38.174-.612.199-.174.016-.526.215-.737.389-.417 2.304-.113 2.896-.113m123.016 23.252c-.738-.911-.766-.94-1.843-1.43-1.576-.729-3.07-1.818-4.549-2.705-.773-.446-1.66-.737-2.414-1.191-.773-.486-1.81-.535-2.563-1.013-.742-.486-1.215-1.41-1.969-1.907-.749-.486-1.55-.903-2.3-1.41-.762-.49-1.632-.818-2.365-1.304-.738-.498-1.495-.968-2.256-1.466-.73-.506-1.552-.92-2.293-1.434-.737-.494-1.401-1.11-2.146-1.624-.71-.51-1.139-1.49-1.872-2.013-.753-.51-1.85-.49-2.588-.988-.745-.506-1.543-.911-2.272-1.438-.733-.518-1.328-1.223-2.053-1.737-.754-.51-1.608-.863-2.345-1.37-.733-.51-1.207-1.409-1.944-1.895-.73-.506-1.568-.875-2.3-1.389-.754-.506-1.65-.794-2.399-1.312-.753-.507-1.186-1.458-1.923-1.969-.75-.514-1.503-1.028-2.24-1.547-.725-.478-1.867-.466-2.608-.98-.746-.51-1.479-1.037-2.216-1.563-.729-.527-1.227-1.381-1.976-1.904-.73-.53-1.701-.717-2.447-1.251-.74-.535-1.304-1.264-2.025-1.79-.733-.54-1.195-1.455-1.911-2.001-.738-.519-1.868-.519-2.589-1.037-.737-.543-1.45-1.082-2.174-1.6-.73-.547-1.07-1.58-1.815-2.106-.733-.543-1.827-.583-2.552-1.09-.745-.55-1.3-1.328-2.025-1.842-.712-.543-1.535-.96-2.272-1.495-.737-.535-1.486-1.008-2.223-1.53a62.136 62.136 0 01-2.191-1.609c-.717-.526-1.612-.83-2.35-1.369-.733-.526-1.186-1.446-1.92-1.984-.736-.523-1.692-.754-2.43-1.268-.72-.486-1.17-1.426-1.915-1.96-.733-.527-1.73-.689-2.467-1.215-.729-.531-1.122-1.556-1.867-2.082-.72-.519-1.535-.912-2.284-1.446-.737-.494-1.535-.94-2.288-1.466-.738-.535-1.454-1.15-2.2-1.669-.749-.53-1.462-1.102-2.24-1.628-.125-.097-.307-.118-.457-.19.11-.162.223-.329.332-.487.413-.607.863-1.186 1.268-1.798.409-.595.79-1.219 1.186-1.839.349-.587.875-1.158 1.232-1.774.356-.599.514-1.433.87-2.199.308-.632.648-1.41 1.005-2.11.34-.713.688-1.401 1.11-2.066.409-.66.883-1.308 1.369-1.83.49-.652 1.178-1.09 1.745-1.426.316-.17.616.267.798.138.66-.344 1.02-.859 1.426-1.543.38-.685.555-1.398.781-2.086.231-.713.454-1.422.563-2.155.085-.733.085-1.502.126-2.264.024-.782.113-1.519.097-2.244-.024-.761-.057-1.518-.057-2.288a12.96 12.96 0 00-.25-2.645c-.175-.866-.381-1.693-.365-2.604-.024-.737 0-1.316 0-1.928a9.22 9.22 0 00-.34-1.895 8.028 8.028 0 01-.39-2.528c-.024-.854-.007-1.697.15-2.56.142-.87.43-1.615.649-2.458.23-.838.34-1.673.538-2.519.199-.822.174-1.786.405-2.544.22-.64.632-1.53.725-2.296.114-.77.09-1.62 0-2.446-.117-.83-.348-1.637-.417-2.443-.158-.83-.397-1.64-.372-2.426.048-.692.133-1.393.283-2.09.13-.652.389-1.275.348-1.976-.044-.668.057-1.377.04-2.005 0-.664-.023-1.34-.032-1.997.009-.68.05-1.352-.016-2.017a18.293 18.293 0 00-.218-2.588c-.122-.87-.596-1.66-.746-2.507a26.422 26.422 0 01-.514-2.567c-.166-.839-.085-1.714-.142-2.56-.065-.875-.15-1.705-.056-2.556.056-.607.174-1.324.214-2.037.016-.668-.125-1.401-.174-2.09-.04-.705 0-1.422-.198-1.98-.324-.952-1.114-1.661-1.394-2.755-.117-.587-.267-1.202-.384-1.798-.09-.591-.025-1.227-.09-1.802-.15-.839-.409-1.657-.542-2.507-.154-.818-.32-1.636-.478-2.511-.174-.818-.11-1.669-.316-2.507-.182-.798-.474-1.616-.689-2.443-.226-.826-.316-1.652-.559-2.442-.214-.846-.486-1.636-.72-2.454-.231-.71-.507-1.422-.596-2.187-.117-.721-.182-1.475-.243-2.22-.08-.753-.04-1.515-.174-2.215-.126-.62-.43-1.244-.539-1.92-.093-.64-.166-1.276-.291-1.94-.09-.648-.308-1.276-.438-1.912-.166-.652.008-1.506-.166-2.28a4.853 4.853 0 00-.972-2.009c-.389-.547-1.004-.944-1.612-1.365-.57-.441-1.101-.846-1.385-1.608-1.146.142-.782 1.179-.964 1.985-.15.506-.462 1.336-.628 2.057-.158.887-.202 1.64-.243 2.447-.04.797-.28 1.64-.287 2.543-.004.745.089 1.466.073 2.187 0 .766-.025 1.51-.017 2.24-.024.778.207 1.482.207 2.284.024.7-.04 1.426-.016 2.191.016.725-.025 1.515.016 2.228.032.757.134 1.519.166 2.276.073.689-.117 1.483-.073 2.208.057.838.413 1.644.454 2.446.044.818-.174 1.628-.15 2.43.053.822.34 1.624.36 2.462.04.81-.133 1.616-.068 2.435.008.806.048 1.616.076 2.426.041.846.183 1.664.215 2.486.065.827.207 1.637.263 2.414.061.721-.024 1.454.037 2.155.073.741.174 1.482.166 2.2.065.72-.053 1.441-.11 2.13-.048.903-.117 1.757-.141 2.693-.008.883.166 1.77.166 2.681.008.863-.158 1.77-.134 2.665.045.83.085 1.693.053 2.544-.016.854.016 1.709 0 2.523 0 .838.089 1.68.121 2.52.008.882-.206 1.74-.089 2.555-.093-1.106-.06-2.171-.117-3.321-.033-.745-.263-1.313-.438-1.875-.166-.596-.259-1.175-.441-1.896a12.084 12.084 0 01-.373-2.122c-.085-.693-.15-1.442-.243-2.143-.214-.887-.68-1.717-.943-2.612-.243-.936-.418-1.851-.616-2.754-.166-.746-.405-1.458-.632-2.171a26.816 26.816 0 00-.778-2.163c-.243-.733-.324-1.51-.623-2.211-.276-.71-.616-1.406-.92-2.074-.332-.7-.615-1.414-.964-2.094-.34-.693-.749-1.324-1.069-2.013-.385-.648-.741-1.324-1.105-1.98-.39-.636-.924-1.2-1.313-1.868a56.771 56.771 0 00-1.118-1.968c-.368-.676-.749-1.345-1.105-1.985-.397-.668-.608-1.393-.956-2.065-.389-.664-.887-1.223-1.244-1.867-.364-.636-.688-1.308-1.069-1.965-.368-.631-.583-1.288-.854-1.915-.3-.648-.725-1.207-.948-1.876-.231-.648-.332-1.332-.616-2.025-.28-.79-.555-1.587-.854-2.357-.288-.81-.588-1.6-.847-2.385-.3-.814-.498-1.616-.794-2.358-.267-.818-.798-1.506-1.057-2.328-.308-.758-.421-1.64-.672-2.439-.316-.745-.814-1.462-1.118-2.227-.251-.677-.543-1.317-.806-1.96-.275-.669-.275-1.402-.547-2.05-.267-.664-.773-1.17-1.04-1.839a12.704 12.704 0 00-1.078-2.094c-.413-.603-.863-1.235-1.251-1.915-.68.364-.924.968-1.066 1.64-.121.697-.247 1.397-.38 2.09-.118.75-.365 1.507-.58 2.207-.19.762-.202 1.564-.376 2.35a12.334 12.334 0 00-.24 2.304c0 .81-.007 1.575.017 2.34.069.79.207 1.56.292 2.346.08.798.064 1.608.198 2.361.085.774.26 1.543.38 2.345.159.758.333 1.543.49 2.33.175.756.252 1.55.418 2.3.223.757.348 1.518.523 2.292.23.733.587 1.458.793 2.195.195.77.393 1.51.624 2.24.207.729.547 1.446.741 2.203.255.77.373 1.515.612 2.268.275.721.688 1.394.964 2.127.239.749.437 1.498.705 2.247.25.725.324 1.552.607 2.264.316.887.73 1.738 1.15 2.459.393.571 1.013 1.065 1.422 1.64.421.636.761 1.47 1.029 2.325.283.87.753 1.689.996 2.373.247.717.356 1.47.604 2.119.234.668.526 1.369.797 1.96.3.705.689 1.296.98 2.005.333.615.572 1.292.863 1.96.365.733.924 1.406 1.256 2.147.348.761.43 1.628.713 2.414.141.417.291.85.453 1.26a10.043 10.043 0 01-.486-.746 63.746 63.746 0 00-1.162-2.292c-.442-.721-.863-1.434-1.312-2.151-.466-.725-.782-1.543-1.252-2.244-.474-.7-.923-1.417-1.397-2.106-.466-.664-1.005-1.28-1.487-1.916-.47-.656-.895-1.397-1.36-2.033-.515-.66-1.195-1.162-1.702-1.794-.453-.664-.696-1.495-1.219-2.139-.49-.656-.98-1.296-1.486-1.948-.462-.652-1.094-1.186-1.551-1.859-.499-.636-.88-1.34-1.337-2.025-.482-.684-.911-1.365-1.41-2.057-.498-.665-.971-1.349-1.453-2.017a47.397 47.397 0 00-1.467-2.01c-.441-.684-1.004-1.295-1.494-1.996-.458-.668-.847-1.422-1.345-2.09a31.01 31.01 0 00-1.312-2.082c-.45-.708-.79-1.41-1.219-2.195-.393-.765-1.09-1.36-1.572-2.082-.498-.684-.822-1.518-1.324-2.22-.498-.7-1.207-1.291-1.644-2.044-.401-.66-.725-1.377-1.065-2.147-.349-.676-.515-1.462-.827-2.155-.352-.733-.858-1.36-1.178-2.073-.21-.47-.235-1.37-.6-2.212-.291-.68-.846-1.263-1.21-1.907-.434-.786-.863-1.39-1.414-1.608-.596-.223-1.175 0-1.774.575-.474.437-.887 1.04-1.252 1.636-.409.73-.672 1.454-.814 1.896-.19.773-.433 1.543-.4 2.369.044.806.181 1.644.348 2.438.194.782.607 1.527.838 2.256.275.81.356 1.66.656 2.365.275.762.774 1.442 1.073 2.187.312.742.636 1.467.952 2.208.324.77.705 1.515 1.029 2.231.34.71.591 1.487.98 2.216.332.737.624 1.486.972 2.236.373.708.79 1.409 1.162 2.138.365.73.58 1.523.964 2.236.357.737.746 1.45 1.143 2.154.368.701.688 1.45 1.057 2.208.32.688.77 1.243 1.085 1.92.357.656.79 1.267 1.13 1.927.316.677.514 1.414.87 2.07.341.632.847 1.187 1.22 1.86.34.635.616 1.36.948 1.996.38.648.704 1.324 1.077 1.972.397.604.73 1.304 1.106 1.916.413.689.729 1.414 1.126 2.082.4.656.964 1.24 1.344 1.903.385.677.733 1.402 1.09 2.074.356.697.672 1.515.98 2.236-.64-.442-1.264-1.041-1.859-1.535-.648-.426-1.19-.972-1.81-1.426-.592-.506-1.195-.98-1.762-1.507-.58-.506-1.187-.98-1.742-1.518-.547-.551-1.077-1.09-1.612-1.64-.563-.531-1.21-.96-1.758-1.54-.49-.595-.903-1.251-1.433-1.855-.474-.611-.891-1.255-1.361-1.875a702.04 702.04 0 01-1.446-1.81c-.433-.604-.839-1.228-1.288-1.819-.462-.559-1.02-1.057-1.474-1.648-.442-.596-1.005-1.082-1.462-1.653-.426-.559-.863-1.138-1.329-1.709-.458-.559-.927-1.122-1.401-1.697-.474-.543-.798-1.26-1.288-1.827-.474-.559-.944-1.146-1.454-1.73-.478-.546-1.102-1.016-1.592-1.59-.482-.572-.846-1.3-1.345-1.852-.506-.57-1.194-.98-1.709-1.51-.547-.547-.94-1.175-1.486-1.693a42.028 42.028 0 00-1.75-1.47c-.539-.446-1.061-.928-1.636-1.333-.596-.38-1.146-.826-1.774-1.203-.575-.356-1.215-.7-1.81-1.053-.592-.348-1.212-.668-1.803-1.061-.863-.539-1.758-1.041-2.483-1.183-.81-.194-1.466.097-1.672 1.62-.118.839-.308 1.632-.316 2.43-.025.798.097 1.66.19 2.45a20 20 0 00.365 2.443c.166.81.405 1.588.64 2.373.23.79.627 1.52.96 2.309.291.77.773 1.405 1.162 2.142.368.713.506 1.608.907 2.313.454.693 1.126 1.231 1.576 1.928.49.656.806 1.446 1.26 2.098.518.624 1.19 1.154 1.729 1.762.506.591.943 1.3 1.474 1.871.535.608 1.178 1.057 1.737 1.616.54.555 1.07 1.118 1.6 1.713.575.551 1.082 1.163 1.66 1.713.54.56 1.212 1.03 1.742 1.596.592.515 1.13 1.09 1.722 1.64.538.555 1.045 1.163 1.608 1.73.554.55 1.203 1.102 1.802 1.725a30.974 30.974 0 011.725 1.79c.58.649.997 1.39 1.446 2.09.49.71 1.118 1.426 1.41 2.196-.806-.07-1.604-.166-2.293-.333-.761-.145-1.41-.563-2.098-.87-.688-.304-1.377-.551-2.057-.924-.592-.405-1.296-.692-1.969-1.146-.688-.535-1.36-1.04-2.126-1.43-.713-.445-1.49-.79-2.223-1.219-.689-.421-1.45-.875-2.155-1.38a33.389 33.389 0 01-2.07-1.844c-.688-.644-1.385-1.255-2.033-1.924-.571-.473-1.162-.878-1.758-1.328-.6-.43-1.105-.952-1.786-1.296-.595-.385-1.3-.624-1.964-.956-.624-.344-1.231-.753-1.904-1.045-.656-.287-1.316-.628-1.964-.895-.689-.292-1.397-.478-2.086-.697-.688-.287-1.316-.668-1.98-.887-.689-.283-1.353-.623-1.985-.895-.705-.303-1.393-.518-2.082-.798-.672-.307-1.272-.801-1.944-1.085-.697-.292-1.401-.55-2.09-.83-.7-.227-1.494-.187-2.2-.43-.773-.206-1.461-.737-2.219-1.024-.801-.219-1.656-.26-2.462-.482-.75-.276-1.527-.762-2.325-.9-.798-.161-1.636.065-2.466-.007-1.86-.077-1.851.158-1.126 1.612.555 1.065 1.004 1.47 1.219 2.596.174.996.474 1.66.947 2.32.499.584.936 1.325 1.665 1.94.624.486 1.345.863 2.009 1.39.64.42 1.312.923 2 1.389.697.409 1.447.733 2.127 1.146.689.405 1.426.79 2.139 1.195.692.36 1.344.92 2.029 1.32.729.357 1.466.669 2.19 1.057.69.401 1.354.875 2.058 1.292.705.39 1.568.519 2.297.883.624.39 1.17.94 1.77 1.365.632.38 1.312.73 1.948 1.163.567.457.988 1.138 1.612 1.587.563.474 1.203.895 1.774 1.361.591.486 1.114 1.077 1.73 1.576 1.692 1.377 3.956 3.325 2.855 5.824-.203.474-2.507-.41-2.848-.494-1.037-.243-1.859-.794-2.774-1.357-.648-.36-1.312-.713-1.916-1.134-.656-.43-1.385-.997-2.159-1.39-.76-.368-1.559-.72-2.34-1.069-.83-.307-1.693-.542-2.455-.74-.591-.191-1.098.032-1.721-.139-.855-.279-.92-1.364-1.483-1.494-.575-.146-2.895-.822-3.52-.92-.59-.085-1.239-.02-1.745-.25-.62-.268-.903-1.086-1.814-1.26-.94-.114-1.645-.065-2.357-.215-.657-.158-1.32-.437-2.184-.903-.806-.446-1.575-.652-2.316-.964-.721-.296-1.426-.729-2.289-1.02-.518-.2-2.22-1.078-2.665-1.187-.696-.264-1.494-.174-2.243-.45-.794-.271-1.515-.713-2.2-1.049-.696-.34-1.34-.676-2.215-.7-.887.012-1.835 0-2.835.036-.875.057-2.459-.45-3.346-.199.122 1.426 1.71 2.665 2.588 3.78.624.825 1.479 1.409 2.232 2.053 1.029.854 1.867 1.9 2.831 2.815.847.793 1.75 1.142 2.665 1.818.421.312.397.433 1.005.482.538.057.688-.105.887.446.174.482-.009 1.032.239 1.478.202.352.765.713 1.032 1.04.818.953 1.576 1.949 2.366 2.925.777.944.91 1.15 1.134 2.305.25 1.348.806 1.733 1.369 2.867.45.838.947 1.669 1.535 2.207.83.68 1.397.754 1.761 1.9.284.911.365 2.033.624 3.05.215.85.312 1.656.68 2.325.381.72.904 1.336 1.361 1.992.422.612.847 1.292 1.276 2.013.401.68.814 1.401 1.187 2.037.385.701.988 1.272 1.377 1.993.458.842.158 1.41.369 2.272.13.49.522.571.777.895.134.174.15.421.284.604.3.405.765.668 1.045 1.13.283.466.433 1.012.68 1.498.357.71.75 1.426 1.098 2.139.364.725.688 1.474 1.045 2.142.356.737.83 1.37 1.194 2.094.231.49.414.644.746.94.409.356.498.239.522.915.045.976.56 1.564.972 2.402.38.684.713 1.405 1.074 2.114.324.628.672 1.292.943 1.94.223.53.008 1.122.235 1.628.263.567 1.102.551 1.385 1.102.28.523.413 1.418.628 2.013.608 1.689 1.247 3.09 2.183 4.61.385.623.3 1.323.575 1.96.349.769.49 1.506.604 2.328.15 1.227.259 2.503 1.09 3.402.704.762 1.749 1.05 2.43 1.88.275.287.315.753.44 1.117.754 2.354 1.925 4.128 3.82 5.42 2.09 1.393 3.212 4.333 4.528 6.488.814 1.284 2.5.842 3.487 1.936.158.23.34.984.458 1.207.332.616.928 1.357 1.369 1.9 1.013 1.312 2.722 1.838 3.908 2.907.948.851 1.438 1.88 2.151 2.92.316.458.656.79 1.029 1.098 1.045 1.6 2.649 3.018 5.172 6.055 2.005 2.398-5.994-1.6-8.793-3.6 0 0 .02.121.02.154-.6-.26-1.24-.385-1.689-.742-.522-.441-1.012-.988-1.515-1.648-.49-.664-1.162-.988-1.668-1.47-.506-.519-.782-1.276-1.37-1.827-.582-.559-.947-1.247-1.38-1.9-.43-.664-1.037-1.138-1.576-1.745-1.012-1.15-2.79-.911-4.143-1.486-.523-.227-1.086-.397-1.616-.604-1.09-.96-2.26-1.9-3.528-2.884-2.54-1.92-4.16-4.196-5.528-6.974-1.195-2.454-2.033-4.99-3.633-7.27-.83-1.337-1.677-2.718-2.216-4.245-.518-1.466-.376-2.51-1.296-3.73-.57-.948-.948-1.377-1.243-2.418-.308-.952-1.207-1.365-1.446-2.353-.433-.798-.19-1.855-.64-2.758-.3-.575-1.013-.964-1.369-1.54-.806-.64-1.268-1.652-1.968-2.397-.304-.255-.81-.559-1.086-.729-1.114-1.296-1.369-2.317-1.936-3.706-.239-.887-1.94-2.827-2.81-3.033-1.187-.458-1.977-.134-1.912-1.633.02-1.126.34-1.972-.365-2.985-.239-.344-.563-.445-.729-.733-.782-1.134-1.13-2.357-1.826-3.576-.397-.474-.88-.94-1.297-1.466-.295-.474-1.012-.839-1.166-1.519-.458-1.166-.182-2.58-.174-3.71.08-1.604-1.272-2.345-2.442-3.16-.948-.748-1.637-1.866-2.192-2.863-.396-.935-.72-1.672-1.312-2.422-.895-1.348-2.154-2.486-2.738-4.074-.308-.494-.364-1.175-.781-1.66-.405-.377-1.037-.462-1.333-.956-.822-1.187-.956-2.674-1.778-3.763-.814-1.17-1.442-1.734-1.62-3.11-.32-2.99-2.025-5.124-3.5-7.716-.757-1.466-1.761-2.746-2.838-4.042-.523-.539-1.22-1.3-1.596-1.928-.158-.478-.04-.956-.462-1.414-.466-.409-1.029-.834-1.486-1.271-2.042-1.904-4.16-3.293-6.525-4.869-.944-.591-1.632-1.389-2.532-2.081-2.316-1.612-5.22-3.18-6.715-5.48-.324-.446-.555-.855-.862-1.394-.365-.429-.88-.623-1.187-1.15-.596-.757-1.377-1.446-1.908-2.296-1.251-2.066-3.6-2.767-5.322-4.346-1.55-1.632-2.098-3.167-2.588-5.2-.364-1.92-1.037-2.941-2.802-4.192-2.317-1.726-3.305-2.803-4.727-5.27-.895-1.462-1.83-2.762-3.078-4.103-.762-.89-.903-1.636-1.32-2.697-.96-2.572-4.354-3.726-5.335-6.407-.222-.527-.032-1.013-.093-1.564-.316-1.397-1.766-2.588-2.555-3.706-.928-1.292-1.296-2.912-2.65-3.827-1.109-.944-2.081-1.806-3.07-2.876-.15-.336-.206-.66-.453-1.024-.377-.665-.858-1.373-1.272-2.013-.425-.766-.947-1.398-1.178-2.24-.231-.616-.498-1.166-.632-1.867-.09-.664-.142-1.353-.389-1.985-.239-.579-.474-1.235-.713-1.818-.25-.632-.53-1.236-.717-1.843-.239-.58-.47-1.183-.611-1.92-.332-.741-.689-1.515-1.077-2.349-.345-.693-.997-1.32-1.398-2.061-.364-.823-.862-1.463-1.195-2.265-.38-.797-.57-1.648-.862-2.438-.34-.761-.539-1.604-.806-2.37-.073-.534-.158-1.263-.324-1.927-.138-.688-.498-1.264-.697-1.94a6.542 6.542 0 00-.713-1.798c-.425-.9-1.328-1.39-1.725-2.398-.243-.58-.559-1.081-.798-1.652-.174-.499-.267-1.134-.49-1.649-.284-.777-.689-1.498-.936-2.3-.4-.989-.717-1.697-.7-2.625.02-1.016-.43-2.061-.936-2.827-.425-.506-.757-.96-1.045-1.584-.044-.214-.15-.34-.198-.575-.17-.595-.592-1.036-.774-1.644a16.899 16.899 0 00-.931-2.337c-.324-.612-.653-1.28-.855-2.013a21.838 21.838 0 00-.539-2.13c-.109-.75-.182-1.414-.307-2.127-.28-.623-.563-1.215-.738-1.855-.182-.59-.307-1.194-.441-1.798-.24-.644-.438-1.304-.612-1.855-.198-.591-.141-1.47-.324-2.187-.214-.85-.623-1.482-1.012-1.96-.41-.567-.948-.916-1.462-1.345-.588-.397-1.03-.883-1.296-1.62-1.045.154-.628 1.114-.746 1.964-.048.486-.307 1.37-.356 1.985-.101.915-.049 1.677.008 2.479 0 .794-.08 1.62 0 2.482.126.762.255 1.446.34 2.204.093.745.093 1.506.183 2.28.166.603.38 1.49.514 2.236.065.737.166 1.417.324 2.122.057.757.166 1.519.292 2.268.113.304.279.737.222 1.037.07.239-.158.506-.239.838-.085.669.174 1.264.19 1.855-.016.56-.125 1.09-.084 1.637-.04.607.068.94.384 1.454.54.725 1.377 1.328 1.576 2.146.263.903.664 1.766.879 2.75.223.733.291 1.495.466 2.357.239.758.429 1.608.704 2.394.24.761.523 1.531.782 2.414.271.814.58 1.592.814 2.385.23.713.38 1.418.668 2.082.211.693.535 1.49.774 2.135.174.72.308 1.357.458 2.19.255.84.453 1.682.753 2.585.198.915.616 1.766 1.012 2.56.863 2.891 2.01 5.305 3.41 8.047.15.187.179.34.268.567-.927-.36-1.867-.684-2.325-1.13-.445-.271-.737-.627-1.101-.866-1.179-.916-1.05-2.277-1.81-3.403-.45-.506-.949-.595-1.463-.899-.664-.461-1.154-1.138-1.64-1.794-.498-.668-1.232-1.179-1.722-1.92-.919-1.85-1.806-3.985-3.167-5.621-1.138-1.2-1.96-2.653-2.774-4.03-.288-.608-.806-1.102-.887-1.705-.016-.628.15-1.183-.016-1.863-.142-.397-.584-.689-.847-1.037-.6-.64-1.413-.847-1.984-1.483-.616-.862-1.114-1.794-1.742-2.665-1.527-1.94-3.836-3.766-4.318-6.277-.514-2.09-2.15-3.828-3.657-5.488-.385-.563-.798-1.025-.948-1.576-.19-.62-.109-1.288-.457-1.81-.421-.547-.778-1.086-1.203-1.625-.373-.32-.855-.643-1.146-1.053-.778-1.06-1.163-2.36-1.669-3.418-.198-.765-.697-1.195-1.102-1.778-.49-.676-.798-1.519-1.247-2.22-.454-.874-1.126-1.563-1.576-2.401-.45-.855-.77-1.726-1.194-2.568-.45-.786-1.163-1.482-1.629-2.39-.453-.644-.838-1.292-1.344-1.883-.324-.79-.539-1.575-.895-2.329-.199-.247-.438-.514-.673-.785-.263-.39-.498-.725-.814-1-.04-.11-.089-.284-.198-.434-.458-.519-.847-1.146-1.41-1.701a34.916 34.916 0 01-1.7-2.017c-.64.563-.84 1.292-.855 2.126.024.73.04 1.54.024 2.252 0 .85-.158 1.762-.243 2.616-.09.908.036 1.786.045 2.65-.02.81-.045 1.77.23 2.543.15.915.292 1.741.414 2.632.259.883.583 1.701.806 2.507.174.928.364 1.778.64 2.609.275.838.562 1.7.947 2.466.199.928.539 1.75.944 2.507.348.88.522 1.718.87 2.524.402.805.665 1.672.98 2.434.418.818.888 1.559 1.305 2.288.389.774.737 1.596 1.146 2.41.332.777.83 1.502 1.17 2.292.479.77.69 1.681 1.11 2.361.45.778 1.098 1.402 1.462 2.212.365.806.738 1.563 1.147 2.406.453.688.753 1.559 1.06 2.377.556.839 1.204 1.726 1.718 2.491.539.494 1.312.94 1.875 1.531.823.895 1.211 2.118 1.977 2.989.814 1.175 1.916 2.191 2.952 3.216 1.32 1.458 2.84 2.896 4.261 4.301.438.608.628 1.041 1.005 1.632.47.762 1.243 1.292 1.733 2.01.199.352.373.74.648 1.137.247.357.462.665.656.972.033.053.033.499.106.58.473 1.393 1.911 1.121 1.239 2.624-.093.308-.26.672-.393.952-1.9-3.05-4.812-5.812-6.687-7.752-.765-.737-1.405-1.51-2.094-2.236-.704-.761-1.543-1.203-2.325-1.895-.712-.754-1.292-1.746-1.98-2.552-.838-.628-1.495-1.442-2.224-2.102-.716-.782-1.595-1.272-2.349-2.058-.749-.7-1.462-1.591-2.158-2.401-.79-.689-1.544-1.511-2.341-2.305-.782-.777-1.56-1.547-2.256-2.385-.875-.839-1.556-1.612-2.317-2.43-.838-.83-1.628-1.531-2.434-2.33a192.424 192.424 0 00-2.264-2.6c-.814-.87-1.628-1.688-2.366-2.563a36.21 36.21 0 01-2.3-2.779c-.786-1-1.758-1.672-2.661-2.563-.648-.802-1.199-1.572-1.92-2.264-.413-.531-.814-1.216-1.292-1.54-1.802-1.316-2.973-2.802-4.11-4.58-.714-.972-1.41-2.046-2.099-3.026-.773-.948-1.652-1.733-2.316-2.835-.397-.611-.928-2.013-1.774-3.135-.648-.98-1.661-1.778-2.277-2.673-.955-1.101-1.75-1.891-2.405-2.102-.83-.202-1.288.243-1.701 1.349-.19.72-.316 1.766-.45 2.79-.081 1.215-.024 2.426.15 3.127.247 1.17.372 2.442.887 3.702a18.636 18.636 0 001.677 3.491c.583 1.122 1.421 2.15 2.073 3.269.733 1.053 1.248 2.207 1.92 3.256.604 1.049 1.636 1.819 2.313 2.855.583 1.013 1.389 1.92 2.126 2.896 1.061 1.499 2.025 3.28 3.593 4.33.506.43 1.344.753 1.745 1.166.223.126.506.742.636.904.17.753-.008 1.591.498 2.337.535 1.004 1.414 1.798 2.062 2.705.777.87 1.377 1.916 2.138 2.803.709.838 1.398 1.713 2.2 2.56.656.895 1.287 1.899 1.992 2.737 1.487 1.953 3.362 3.427 4.01 5.638.664 2.442 1.867 4.253 3.726 5.99.911.993 1.85 2.082 2.722 3.062.555.6 2.588 2.763 2.54 3.658-2.058.316-1.686-.418-2.646-1.592-.352-.43-1.28-.895-1.693-1.19-.676-.382-1.454-1.163-2.025-1.471-.235-.17-.664-.065-.858-.207-.304-.052-.32-.409-.49-.429a11.102 11.102 0 01-1.766-1.07c-.903-.61-1.434-1.048-2.118-1.733-.92-1.073-1.726-2.187-2.795-3.078-.98-.883-2.183-1.401-3.196-2.37-.688-.671-1.312-1.457-2.05-2.142-.663-.704-1.36-1.437-2.08-2.081-.693-.738-1.398-1.426-2.03-2.167-.652-.701-1.316-1.394-1.9-2.05-.68-.68-1.4-1.194-2.04-1.94-.73-.623-1.426-1.174-2.115-1.838a28.658 28.658 0 00-1.875-1.997c-.685-.644-1.381-1.248-1.969-2.025-.59-.442-1.06-1.268-1.778-1.576-.636-.482-1.004-.911-1.6-1.547-.372-.352-.907-.802-1.312-1.15-.648-.425-1.312-.928-1.636-1.588-.304-.636-.664-1.357-1.17-1.843-.487-.546-1.118-.668-1.673-1.037-1.248-.903-2.26-2.118-3.374-3.037-.729-.644-1.519-1.118-2.215-1.766-.738-.43-1.37-1.09-2.107-1.531-.712-.494-1.409-1.02-2.134-1.495-.705-.441-1.401-.757-2.15-1.263-.722-.434-1.426-.814-2.123-1.207-1.07-.685-2.074-1.292-2.84-1.519-.837-.267-1.275.024-.886 1.713.271.948.34 1.908.753 2.758.292.887.741 1.876 1.146 2.848.434.87.912 1.806 1.378 2.705.498.867 1.065 1.798 1.55 2.758.649.839 1.264 1.71 1.88 2.576.644.847 1.353 1.624 2.005 2.41.664.879 1.207 1.83 1.895 2.588.628.936 1.467 1.604 2.191 2.329.73.77 1.378 1.68 2.058 2.361.555.588 1.154 1.05 1.519 1.665.397.7.92 1.21 1.486 1.802.288.308.563.417.839.636.38.397.53.721 1.154.87.356.163.494.058.753.378.38.218.64.526 1.005.745.77.644 1.454 1.292 2.19 1.98.73.66 1.495 1.349 2.24 1.985.774.656 1.52 1.3 2.277 1.818a27.1 27.1 0 002.24 1.928c.781.628 1.51 1.329 2.247 2.09a15.366 15.366 0 012.325 1.952c1.802 1.394 3.775 2.62 5.237 4.055.616.611 2.499 1.956.782 2.349-1.406.356-3.893-.944-5.047-1.458-.972-.397-1.818-1.033-2.766-1.52-.984-.396-1.823-.923-2.67-1.486-.688-.388-1.287-.935-1.976-1.466-.688-.45-1.486-.737-2.215-1.154-.725-.47-1.385-.936-2.07-1.203-1.158-.243-2.397-.117-3.633-.567-.664-.32-1.36-.664-2.126-.887-.547-.409-1.142-.83-1.742-1.158-.931-.482-1.923-.818-2.823-1.292-.968-.474-1.842-.936-2.802-1.345-.863-.53-1.693-1.142-2.633-1.604-.927-.376-1.835-.814-2.888-1.166-.713-.397-1.766-.847-2.414-1.398-.15-.186-.235-.42-.506-.575-.87-.753-2.34-.623-3.463-1.053-1.304-.559-2.62-1.53-3.827-2.381-.737-.551-1.426-1.122-2.147-1.576-.688-.376-1.494-.7-2.102-1.186-.688-.446-1.336-.851-2.017-1.3-.68-.414-1.328-.863-2.057-1.228-.665-.38-1.337-1.223-2.191-1.713-.778-.55-1.75-.855-2.5-.968-.801-.162-1.64-.093-2.502.02-.891.097-1.661.025-2.5-.364-.93.956.365 1.587.92 2.325.401.538.87 1.474 1.385 2.174.6.928 1.329 1.604 2.025 2.289.689.632 1.288 1.535 2.11 2.288.705.608 1.418 1.134 2.135 1.726.644.648 1.316 1.292 2.065 1.846.705.576 1.568 1.066 2.313 1.645.685.607 1.32 1.186 2.126 1.806.547.393 1.013.997 1.75 1.268.664.223.94.579 1.446.98.806.55 1.71.907 2.54 1.377.91.442 1.502 1.13 2.215 1.746 1.138.98 2.333 1.964 3.447 2.916 1.036.672 2.162 1.049 3.11 1.644.887.636 1.604 1.32 2.438 1.851.891.559 1.738 1.154 2.617 1.693.931.41 1.818.944 2.681 1.527.944.55 1.875.94 2.795 1.458.716.405 1.53.964 2.292 1.426.79.494 1.725.757 2.49 1.276 1.236.83 2.889 1.296 3.942 2.413 1.802 1.884-2.191 1.382-3.155.612-1.143-.94-2.248-1.928-3.816-2.053-1.271-.098-2.442-.122-3.685-.36-1.734-.426-3.544-.021-5.237-.726-1.47-.64-2.77-1.494-4.35-2.094-.887-.336-1.79-.773-2.673-1.162-.83-.401-1.64-.608-2.523-.843-.28-.064-.54-.388-.802-.494-.19-.113-.717-.259-.948-.283-1.187-.085-2.098-.438-3.228-.944-.648-.417-1.13-.867-1.985-1.154-2.272-.92-4.682-1.207-6.978-1.997-1.734-.567-3.694-1.34-5.618-.96-1.843.263-3.661.62-5.589.895-.802.057-2.629-.214-3.086.7-.174.422.737 1.694 1.146 1.965.745.697 1.094.506 1.976.786 1.276.409 2.265 1.462 3.492 1.993 1.43.482 2.713 1.186 4.034 1.806.615.223 1.328.36 2.073.575 1.462.494 2.576 1.572 3.929 2.248.92.389 1.948.413 2.896.713 1.268.518 2.009 1.68 2.896 2.588 1.154 1.004 2.442 2.211 3.766 3.11 1.888 1.106 4.751 1.45 7.015 1.726.762.097 1.52.218 2.208.587.664.369 1.138 1.053 1.9 1.247.06.329.06.677 0 1.009-.009.069-1.584.405-1.75.405-.632.028-1.045-.296-1.62-.478-1.236-.4-2.366-.065-3.536.336-1.005.26-3.127.519-4.217.243-1.648-.372-2.762-1.56-4.536-1.766-2.758-.307-5.14-1.223-7.962-.89-.936.1-2.564-.183-3.394.234-1.244.612-.58 1.855.206 2.532.875.74 1.928 1.186 2.856 1.855.583.405 1.065.935 1.62 1.389a11.737 11.737 0 002.547 1.604c.616.267 1.454.303 2.017.603.506.284.895.713 1.584 1.017 1.028.461 2.025.935 3.037 1.433 1.215.592 2.516 1.086 3.265 2.13.96 1.346 2.033 1.994 3.212 3.164-.964.75-3.354 1.397-3.812 2.706-.364 1.028.9 1.846 1.179 2.742.267.862-.097 1.454.656 2.231 1.195 1.227 3.244 1.13 4.5 2.32.372.361 1.353 1.167 1.64 1.609.26.445 2.775.498 3.188 1.016 1.288 1.572 3.098 2.929 4.94 3.654 1.981.781 4.14 1.62 5.388 3.434.42.604 1.846 2.228 1.915 2.823.142 1.094-1.709 2.6-2.458 3.232-.911.806-1.892 1.236-2.248 1.936-.45.952-.166 1.717.032 2.698.49 2.977 2.216 5.921 5.622 6.893 1.203.356 2.503.085 3.625.66 1.22.494 3.528 1.71 4.151 2.811 1.211 2.13.223 3.264.349 5.464.105 2.13.453 4.528 2.106 6.132 1.045 1.085 2.798 1.859 4.115 2.62 1.62.944 3.361 1.77 4.167 3.674.276.838.15 2.268.166 3.264-.113.308-.34.75-.279 1.17-.06.51-.045 1.03.113 1.337-.117 2.159-.413 4.285.924 6.509.944 1.737 2.373 2.952 3.766 4.232.24.596.632 1.029 1.171 1.523.38.203.737.373 1.07.547 1.429 1.673 2.057 3.094 4.722 3.05.133.044.21.194.384.226.653.312 1.175.596 1.649 1.033 1.029 1.057 2.94 2.106 3.503 3.483.349.806.332 1.948.555 2.856.697 1.887 2.102 5.986 4.334 6.808 1.36.474 2.762-.36 4.208-.385.49.025 1.037-.004 1.56-.012.425 1.175 1.073 2.175 2.057 2.957 1.13 1.199 4.467 2.118 5.054 3.386.701 1.7-1.474 2.802-2.146 4.042-.875 1.753-.656 3.997-.68 5.8-.029 1.624.47 2.482 1.55 3.637-.599.559-.98 1.433-1.644 1.887-.753.498-1.81.514-2.54 1.025-.736.506-1.21 1.425-1.943 1.895-.73.482-1.402 1.005-2.13 1.479-.722.481-1.803.425-2.516.903-.713.474-1.077 1.478-1.786 1.972-.72.474-1.685.6-2.39 1.09-.72.494-1.243 1.235-1.932 1.717-.724.482-1.636.668-2.365 1.146-.713.486-1.405 1-2.126 1.487-.721.486-1.519.83-2.207 1.312-.823.555-1.463 1.36-2.31 1.887-.83.551-1.692 1.065-2.53 1.584-.847.55-1.616 1.186-2.439 1.693-.806.506-1.907.559-2.68 1.069-.815.522-1.487 1.203-2.281 1.713-.782.523-1.207 1.527-1.985 2.09-.781.523-1.737.786-2.523 1.316-.79.527-1.422 1.28-2.24 1.795-.749.486-1.587.887-2.34 1.389-.774.466-1.876.466-2.65.984-.753.494-1.296 1.333-2.057 1.827-.733.498-1.519.968-2.276 1.49-.762.506-1.292 1.37-2.05 1.883-.753.527-1.684.778-2.422 1.264-.74.53-1.668.786-2.426 1.3-.712.519-1.178 1.373-1.883 1.888-.688.506-1.742.55-2.446 1.073-.673.506-1.248 1.199-1.936 1.737-.713.499-1.126 1.394-1.815 1.92-.692.519-1.571.81-2.26 1.329-.672.514-1.369 1.065-2.073 1.58-.705.514-1.438.98-2.151 1.498-.778.498-1.243 1.442-2.009 1.96-.761.527-1.717.737-2.499 1.264-.761.534-1.385 1.247-2.138 1.794-.766.543-1.588.964-2.341 1.515-.713.559-1.62.903-2.333 1.49-.798.612-1.66 1.114-2.43 1.774-.742.656-1.122 1.798-1.876 2.422-.74.664-1.486 1.337-2.268 1.928-.68.518-1.693.624-2.414 1.122-.704.502-1.55.814-2.276 1.296-.688.49-.96 1.636-1.677 2.118-.737.486-1.559.81-2.288 1.284-.713.466-1.486.859-2.207 1.324-.713.507-1.588.734-2.293 1.252-.42.288-.611.741-1.036 1.057-.39.288-.948.344-1.386.608-.64.388-.996 1.073-1.527 1.567-1.02 1.009-1.729 2.07-2.75 3.119a3.212 3.212 0 00-.287.336c-.948 1.215.287 1.583 1.527 2.49 1.478 1.046 2.863 2.168 4.313 3.265.689.535 1.39 1.053 2.086 1.584.689.55 1.227 1.271 1.924 1.83.741.608 1.762.823 2.531 1.394.774.55 1.28 1.45 2.05 2 .68.507 1.369.936 2.057 1.394-.478.206-.936.429-1.324.77-.624.55-1.163 1.235-1.851 1.696-.673.45-1.179 1.118-1.827 1.596-.648.486-1.385.83-1.835 1.495-.409.644-.631 1.405-.631 2.296-.041.891.332 1.227.648 1.64.332.426.712.665 1.4 1.061.649.39.973 1.313 1.556 1.746.644.421 1.385.94 2.155.94.158 0 .251-.648.385-.68.348-.061 1.324-.345 1.988-.345.584 0 .908.55.45 1.56-.223.457-1.029 1.222-2.2 1.62-.797.283-1.7.668-2.571.894-1.09.325-2.118.353-2.625.563-.83.329-1.608.414-2.422.588-.931.247-.838.875-1.43 1.575-.34.43-1.291.94-1.85 1.053-.697.142-1.126-.085-1.665.466-.41.421-.733 1.231-.798 1.819-.166 1.555.737 3.017 1.677 4.183.539.657 1.251 1.268 1.608 1.916.725 1.187.567 2.394 1.936 2.876.798.304 1.693.64 2.58.777a24.3 24.3 0 002.673.134c.539 0 1.053-.81 1.575-.846.713-.061 1.827.198 2.65.198.214 0 .254-.113.412-.053 1.414.717.126.094-.522.235-.778.179-1.458.754-2.216.956-.753.219-1.47.571-2.24.802-.749.243-1.43.685-2.174.944-.746.28-1.62.11-2.358.413-.729.3-1.267 1.008-1.883 1.345-.782.396-1.867.45-2.118 1.11-.223.59.34 1.356.79 2.292.413.798.846 1.514 1.425 2.154.575.624 1.24 1.147 1.969 1.612.72.442 1.401.936 2.231 1.268.774.304 1.511.992 2.366 1.175.83.202 1.794-.243 2.64-.142.839.097 1.693.543 2.548.543.53 0 1.345-.474 1.859-.519-.008.87-.097 1.839.223 2.544.34.717 1.033 1.142 1.62 1.693.563.526 1.004 1.255 1.725 1.612.713.364 1.564.25 2.341.425.782.206 1.51.43 2.268.43.231 0 .43-.122.644-.13.798-.07 1.677.13 2.459-.154.79-.268 1.543-.697 2.3-1.021.786-.312 1.499-.887 2.28-1.081.713-.19 2.232.303 3.585.303.996 0 1.96-.384 2.475-.105.72.462.364.915 1.17 1.333.284.125.595.332 1.013.332.68 0 1.502-.195 2.28-.373.883-.202 1.652-.603 2.183-.765.79-.24 1.7-.187 2.515-.442.814-.263 1.612-.563 2.434-.85.794-.284 1.576-.648 2.333-.948 1.515-.563 2.43-1.09 3.366-1.09.692 0 1.365.3 2.3 1.118a10.76 10.76 0 002.066 1.438c.725.41 1.486.838 2.276 1.073.806.231 1.66.231 2.507.28.255.024.514-.373.761-.373.79 0 1.544.138 2.317 0 .782-.121 1.462-.522 2.224-.737a24.093 24.093 0 002.223-.697c.725-.239 1.527-.348 2.285-.583.745-.235 1.543-.397 2.304-.57.6-.163 1.312-.045 1.96-.155.64-.089 1.252-.688 1.9-.786.356-.048.7-.093 1.049-.137.38.182.761.364 1.102.595.79.571 1.328 1.507 2.094 2.058.81.542 1.782.838 2.58 1.397.814.563 1.66 1.045 2.454 1.604.717.506 1.612.773 2.349 1.247.725.507 1.312 1.223 2.041 1.726.725.506 1.588.818 2.333 1.312.721.518 1.37 1.114 2.086 1.632.737.498 1.515.936 2.24 1.454.737.514 1.26 1.304 2.009 1.819.712.506 1.583.781 2.296 1.284.741.498 1.312 1.239 2.025 1.745.741.49 1.462 1.025 2.2 1.519.724.526 1.563.87 2.276 1.369.664.454 1.117 1.227 1.774 1.669.688.441 1.312.951 1.976 1.393.672.453 1.567.591 2.24 1.033.648.441 1.353.854 2.025 1.312.798.563 1.454 1.3 2.268 1.867.806.55 1.693.96 2.479 1.486.798.563 1.437 1.353 2.235 1.916.814.539 1.916.636 2.722 1.187.806.55 1.329 1.486 2.13 2.025.815.526 1.685.968 2.524 1.462.749.47 1.539.924 2.316 1.393.738.482 1.288 1.22 2.05 1.693.773.474 1.604.798 2.357 1.272.765.474 1.478 1.033 2.232 1.507.74.478 1.77.522 2.523.996.741.482 1.215 1.414 1.96 1.912.737.457 1.851.433 2.588.94.709.485 1.304 1.21 2.033 1.737.71.482 1.446.923 2.167 1.405.689.507 1.337 1.106 2.033 1.608.689.519 1.454.916 2.127 1.442.696.506 1.219 1.264 1.924 1.774.672.523 1.563.77 2.26 1.28.688.518 1.178 1.288 1.85 1.814.681.507 1.361 1.041 2.066 1.556.689.518 1.56.777 2.264 1.312.697.506 1.057 1.507 1.77 2.029.689.535 1.774.539 2.479 1.04.709.532 1.288 1.256 1.984 1.759.713.522 1.637.745 2.341 1.263.713.527 1.43 1.013 2.16 1.548.696.51 1.311 1.174 2.032 1.68.705.51 1.187 1.361 1.908 1.867.697.507 1.77.519 2.499 1.033.713.498 1.029 1.592 1.75 2.11.716.499 1.652.713 2.369 1.22.697.477 1.21 1.324 1.948 1.842.73.51 1.908.377 2.64.895.746.495 1.102 1.552 1.827 2.07.713.51 1.815.498 2.532 1.005.737.526 1.158 1.454 1.891 1.972.713.506 1.6.794 2.313 1.34.688.507 1.178 1.329 1.871 1.843 1.227.92 2.288 1.256 3.325 2.398 1.337 1.527 2.864 3.013 4.739 3.864 1.81.838 3.33-1.15 4.641-2.155.823-.632 1.645-1.158 2.273-1.96.174-.247.376-.685.522-.863.907-1.13 2.54-1.498 3.661-2.304.689-.482 1.078-1.462 1.778-1.952.713-.47 1.608-.697 2.297-1.183.725-.494 1.543-.806 2.24-1.304.7-.507 1.121-1.402 1.834-1.908.701-.494 1.438-.948 2.135-1.462.72-.49 1.296-1.154 1.984-1.66.705-.478 1.394-.98 2.106-1.479.705-.506 1.612-.72 2.325-1.231.766-.523 1.288-1.406 2.05-1.969.74-.53 1.55-1.02 2.3-1.575.77-.547 1.71-.85 2.463-1.405.773-.551 1.288-1.463 2.025-2.005.749-.543 1.928-.51 2.697-1.07.75-.538 1.495-1.117 2.268-1.656.77-.53 1.466-1.162 2.248-1.653.774-.526 1.377-1.352 2.15-1.842.754-.486 1.568-.798 2.334-1.215.761-.397 1.466-.908 2.231-1.309.774-.38 1.835-.267 2.62-.664.774-.376 1.337-1.134 2.103-1.535.753-.417 1.344-1.073 2.098-1.547.733-.462 1.405-1.02 2.142-1.515.73-.486 1.6-.79 2.333-1.296.721-.486 1.56-.83 2.28-1.316.725-.498 1.39-1.07 2.119-1.592.712-.51 1.66-.705 2.373-1.231.713-.514 1.061-1.519 1.75-2.013.725-.539 1.595-.83 2.3-1.357.73-.53 1.47-.972 2.159-1.51.729-.564 1.377-1.171 2.082-1.754.713-.58 1.122-1.503 1.81-2.09.697-.587 1.774-.677 2.47-1.264.685-.587 1.224-1.36 1.904-1.94.689-.57 1.426-1.11 2.147-1.685.693-.555 1.247-1.332 1.985-1.87.704-.527 1.393-1.135 2.085-1.67.721-.498 1.377-1.101 2.115-1.64.72-.535 1.421-1.085 2.15-1.612.713-.51 1.636-.79 2.357-1.304.713-.514 1.458-1.02 2.183-1.54.738-.526 1.442-1.044 2.192-1.534.737-.514 1.474-1.041 2.19-1.527.73-.494 1.677-.725 2.415-1.22.745-.505 1.543-.906 2.284-1.392.77-.49 1.203-1.438 1.956-1.884.822-.518 1.835-.781 2.548-1.494.725-.68 1.097-1.726 1.762-2.483.643-.782 1.336-1.49 1.98-2.252.624-.75 1.28-1.498 1.968-2.187.713-.7 1.701-.992 2.524-1.547.753-.498 1.186-1.458 1.936-1.94.753-.486 1.79-.539 2.555-1 .77-.438 1.22-1.414 1.989-1.864.774-.465 1.887-.372 2.633-.862.765-.462 1.328-1.272 2.09-1.738.749-.494 1.563-.903 2.308-1.421.774-.531 1.677-.875 2.434-1.402.77-.563 1.418-1.284 2.18-1.839.789-.534 1.777-.773 2.539-1.32.781-.547 1.539-1.11 2.3-1.636.774-.547 1.272-1.487 2.033-2.017.774-.535 1.394-1.325 2.167-1.855.758-.555 1.693-.867 2.467-1.43.761-.539 1.798-.713 2.58-1.26.77-.538 1.478-1.194 2.248-1.717.765-.53 1.611-.943 2.39-1.474.724-.527 1.461-1.013 2.174-1.527.709-.51 1.138-1.43 1.867-1.948.697-.523 1.462-.944 2.159-1.466.697-.515 1.32-1.146 2.017-1.685.72-.535 1.543-.9 2.248-1.422.692-.546 1.51-.907 2.207-1.442.685-.538 1.248-1.26 1.952-1.79.705-.526 1.377-1.093 2.074-1.591.7-.551 1.106-1.467 1.786-2.005.705-.539 1.361-1.13 2.066-1.653.696-.547 1.826-.506 2.523-1.02.697-.507 1.36-1 2.05-1.479.68-.506 1.065-1.433 1.77-1.907.696-.503 1.393-.989 2.081-1.475.713-.502 1.551-.761 2.248-1.263.688-.49 1.446-.867 2.15-1.333.697-.486 1.503-.79 2.216-1.28.68-.486 1.304-1.101 1.993-1.587.712-.498 1.336-1.086 2.057-1.592.705-.494 1.09-1.446 1.81-1.952.722-.474 1.835-.397 2.548-.883.697-.506 1.446-.924 2.159-1.422.705-.498 1.122-1.421 1.843-1.907.713-.507 1.369-1.09 2.081-1.596 1.908-1.308 3.569-2.803 5.42-4.192.838-.628 2.085-1.15 2.657-2.13.94-1.608-.738-1.835-1.535-2.8" fill="#333132"/><path d="M111.91 299.525c1.344.178 2.308.814 3.718.689 1.044-.077 2.19-.426 3.203-.66 2.572-.62 4.945-1.827 7.396-2.77 1.644-.633 2.863-1.426 4.605-1.783 1.272-.263 2.588-.433 3.843-.81 1.608-.506 3.253-.992 4.812-1.608.664-.267 1.329-.43 1.993-.62-2.613-1.134-5.411-2.75-5.318-3.722.296-2.855.98-3.888 2.531-5.872 1.276-1.665 2.795-3.54 1.908-5.914-.547-1.433-2.572-2.061-3.8-3.167-1.397-.044-2.364-.336-2.093-2.458.267-2.3 2.167-2.67 1.219-5.31-.628-1.766-2.637-2.677-2.977-4.552-.393-2.151.753-4.537.34-6.906-.275-1.571 1.64-4.52 1.511-6.091a4.098 4.098 0 01.04-.628c-.757-.523-1.684-.96-2.365-1.584-1.296-1.065-2.547-2.138-3.985-3.09-1.061-.636-1.766-1.397-2.313-2.374-2.025-3.134-1.114-4.985-1.138-8.424.09-2.993.263-5.925-3.345-7.525-.721-.397-1.628-.45-2.35-.794-.704-.304-1.4-1-2.04-1.519a13.85 13.85 0 01-1.56-1.146c-.616.458-1.22.992-1.851 1.414-.75.49-1.328 1.251-2.07 1.745-.81.53-1.855.7-2.652 1.24-.782.542-1.398 1.344-2.175 1.887-.814.547-1.527 1.223-2.3 1.746-.795.567-1.852.74-2.605 1.28-.782.558-1.146 1.717-1.936 2.276-.794.57-1.535 1.17-2.32 1.733-.79.571-1.779.838-2.54 1.365-.766.543-1.803.705-2.576 1.264-.786.546-1.475 1.215-2.24 1.757-.782.547-1.304 1.45-2.057 2.005-.774.567-1.868.644-2.65 1.195-.769.559-1.45 1.203-2.223 1.786-.765.56-1.583 1.033-2.325 1.616-.77.583-1.55 1.146-2.316 1.75-.77.587-1.385 1.405-2.163 1.948-.774.583-1.487 1.247-2.26 1.81-.786.58-1.592 1.134-2.374 1.69-.76.55-1.486 1.15-2.255 1.7-.734.543-1.62.912-2.382 1.426-.774.539-1.337 1.39-2.11 1.928-.786.518-1.568 1.02-2.35 1.551-.753.53-1.725.77-2.498 1.292-.778.539-1.292 1.458-2.05 1.985-.72.498-1.466 1.004-2.174 1.506-.713.507-1.483.948-2.192 1.442-.729.519-1.624.725-2.373 1.244-.713.514-1.15 1.41-1.875 1.92-.705.494-1.503.886-2.224 1.385-.729.506-1.677.656-2.414 1.162-.725.506-1.437 1.037-2.15 1.551-.762.555-1.353 1.385-2.127 1.944-.785.543-1.624 1.005-2.414 1.54-.777.55-1.693.923-2.462 1.486-.782.542-1.312 1.466-2.11 2.017-.774.559-1.734.85-2.507 1.393-.79.587-1.292 1.531-2.042 2.074-.773.575-1.526 1.186-2.308 1.733-.77.567-1.543 1.13-2.345 1.685-.782.563-1.835.68-2.625 1.207-.773.547-1.717.85-2.499 1.41-.72.498-1.458.984-2.183 1.502-.713.494-1.336 1.126-2.05 1.632-.728.507-1.275 1.268-2 1.786-.72.51-1.345 1.138-2.057 1.64-.632.446-1.41.66-2.058 1.046.166.121.316.247.466.352.737.506 1.134 1.51 1.85 2.009.746.506 1.665.798 2.407 1.304.745.527 1.757.624 2.499 1.142.72.482 1.49 1.009 2.231 1.531.745.506 1.086 1.624 1.819 2.143.753.518 1.608.862 2.34 1.389.722.526 1.65.794 2.39 1.3.596.405 1.211.794 1.815 1.199.45-.227.883-.462 1.336-.454.025 0-.324-.044-.295-.044.28-.721.04-1-.567-1.527-.604-.498-1.07-1.268-1.442-1.66-.56-.6-1.17-1.151-1.487-1.933-.307-.749-.563-1.591-.546-2.406.024-1 .38-1.822.785-2.482.45-.721 1.098-1.292 1.876-1.693.7-.36 1.47-.988 2.34-1.175.79-.146 1.694-.137 2.54-.19.855-.065 1.73-.09 2.556-.11.907-.032 1.685.187 2.393.11.446-1.337-.283-1.252-.716-1.997-.507-.773-1.211-1.3-1.353-2.106-.138-.782.044-1.652-.008-2.531-.122-1.446-.563-1.588.708-2.536.349-.259.033-.024.827-.461.542-.324 1.462-.381 2.499-.381 0 0-.017.194.032.194.814 0 1.693-.466 2.515-.385 1.09.081 2.143 0 3.228.32.964.28 1.794-.222 2.79-.222.912 0 1.779.591 2.633.623.887.049 1.799-.295 2.682-.214.862.125 1.814 0 2.685.227.858.186 1.62.761 2.466 1.06.855.325 1.81.309 2.65.633.862.32 1.575.91 2.405 1.255.838.292 1.628.766 2.467 1.09.838.3 1.656.74 2.503 1.028.854.3 1.676.6 2.53.9.847.295 1.836.194 2.698.445.75.247 1.58.288 2.366.526.733.248 1.518.466 2.292.701.774.247 1.51.628 2.284.839.778.226 1.377 1.065 2.171 1.263.75.235 1.547.385 2.333.587.774.195 1.734-.263 2.5-.06.797.182 1.502.749 2.283.927.778.182 1.6.146 2.39.288.794.162 1.551.538 2.341.668.794.142 1.648-.085 2.414.032.92.13 1.774.786 2.705.928.92.13 1.827.454 2.77.571.892.117 1.844.162 2.767.227.944.057 1.9-.186 2.84-.186.76.012 1.534-.102 2.28-.009.773.053 1.575-.202 2.348-.105m308.361-5.536c-.754-.507-1.487-1.037-2.265-1.535-.765-.515-1.547-.989-2.308-1.507-.766-.506-1.147-1.588-1.908-2.118-.75-.49-1.819-.539-2.568-1.05-.753-.502-1.3-1.324-2.05-1.842-.745-.527-1.478-1.098-2.231-1.62-.745-.527-1.369-1.236-2.106-1.774-.75-.527-1.677-.798-2.418-1.32-.745-.535-1.434-1.159-2.15-1.694-.738-.55-1.584-.951-2.33-1.482-.79-.591-1.745-.976-2.515-1.58-.79-.615-1.652-1.101-2.418-1.688-.777-.612-1.11-1.823-1.9-2.418-.777-.616-1.874-.778-2.672-1.37-.802-.59-1.308-1.591-2.106-2.162-.758-.498-1.503-1.05-2.268-1.588-.754-.514-1.499-1.11-2.256-1.624-.77-.526-1.527-1.025-2.3-1.535-.77-.526-1.775-.684-2.548-1.19-.786-.52-1.511-1.07-2.289-1.56-.757-.51-1.502-1.081-2.26-1.588-.794-.498-1.535-1.065-2.312-1.555-.774-.514-1.71-.806-2.491-1.308-.766-.486-1.52-1.057-2.285-1.531-.785-.466-1.535-1.029-2.32-1.519-.79-.498-1.52-1.073-2.309-1.575-.773-.474-1.725-.689-2.515-1.187-.79-.486-1.446-1.187-2.24-1.673-.75-.462-1.587-.761-2.357-1.203-.733-.461-1.22-1.328-1.993-1.786-.765-.462-1.85-.4-2.616-.834-.778-.458-1.284-1.288-2.05-1.746-.745-.457-1.798-.441-2.555-.89-.762-.446-1.329-1.208-2.09-1.653-.766-.458-1.495-.976-2.24-1.426-.765-.458-1.563-.834-2.333-1.288-.749-.47-1.737-.559-2.482-1.045-.758-.462-1.37-1.162-2.098-1.64-.75-.458-1.604-.762-2.35-1.244-.74-.482-1.296-1.255-2.04-1.757-.734-.486-1.645-.713-2.358-1.22-.292-.202-.559-.449-.838-.68-.324.413-.648.838-.972 1.252-.458.611-.916 1.251-1.37 1.867-.457.644-1.004 1.207-1.47 1.87-.425.649-.964 1.248-1.409 1.92-.45.657-.87 1.366-1.264 2.143-.364.741-.664 1.572-1.093 2.232-.357.55-.689 1.065-1.005 1.539-.332.53-.538 1.065-.717 1.701-.198.733-.396 1.49-.506 2.268-.146.806-.304 1.495-.688 2.228-.446.883-1.045 1.571-1.426 2.51-.45 1.046-.879 2.079-1.393 3.115-.442.94-1.098 1.284-1.422 2.345-.389 1.345-.437 2.775-.988 4.055-.154.332-.158.55-.365.818a6.677 6.677 0 01-.555.709c-.238.275-.315.445-.38.79-.101.566-.324 1.012-.608 1.522-.182.328-.389.401-.623.644.186.033.352.073.542.114.182-.017.365-.053.547-.045.83.028 1.652.174 2.467.263.818.11 1.607.397 2.413.58.778.186 1.56.4 2.333.668.786.247 1.511.628 2.256.943.774.345 1.669.418 2.447.806.749.345 1.462.851 2.252 1.252.737.385 1.494.786 2.24 1.255.72.422 1.542.689 2.373 1.07a40.6 40.6 0 002.434.976c.818.283 1.648.534 2.51.75.851.198 1.653.57 2.5.736.806.138 1.612.36 2.45.446.806.06 1.653-.029 2.47.004.823.028 1.62.28 2.451.295.814.005 1.653-.283 2.467-.283.846 0 1.685 0 2.503.045.838.036 1.66.356 2.474.417 1.037.044 2.05-.118 3.038-.102 1.004.053 1.993.065 3.005.025.806-.037 1.637.303 2.475.429.846.117 1.677.142 2.454.397.822.263 1.742.38 2.434.765.555.304 1.126.657 1.681 1.013.474.283.798.822 1.288 1.11.822.465 1.734.826 2.6 1.186.936.401 1.876.592 2.787.713.547.065 1.446.547 2.458.916.802.3 1.625.68 2.35 1.121.182.114.579.401.976.742.704.283 1.36.753 2.11.842.862.081 1.757.016 2.636.093.9.065 1.697.571 2.56.737.879.15 1.677.247 2.479.62.75.356 1.81.356 2.499 1.005.623.611 1.053 1.474 1.66 2.118.624.644 1.288 1.251 1.827 1.936.571.709 1.118 1.433 1.551 2.183.442.765 1.146 1.498 1.41 2.34.267.827.182 1.831.198 2.767.012.7-.34 1.555-.445 2.446-.077.802.279 1.738.089 2.584-.19.823-.73 1.556-1.03 2.321-.323.814-.355 1.815-.821 2.454-.523.71-1.52 1.459-2.191 1.236-.596-.401-.652-1.438-.652-2.203-.02-.802.793-1.681.652-2.378-.175-.782-.786-1.494-1.442-1.98-.49-.381-1.227-.851-2.191-.989-.798-.105-1.677.203-2.491.102-.806-.102-1.645-.146-2.47-.207a46.434 46.434 0 00-2.467-.17c-.823-.028-1.637-.186-2.459-.186-.822 0-1.64.158-2.462.218-.823.093-1.653.106-2.435.264-.801.162-1.616.328-2.405.587-.3.101-.588.235-.871.372-.142.134-.267.24-.41.397-.485.543-.834 1.232-1.417 1.665-.603.458-1.328.684-1.907 1.013-.697.388-1.28.94-1.86 1.125-.915.333-1.943.414-2.895.551-.798.118-1.62.065-2.402.187-.83.145-2.082.056-2.795.47-.356.174-.514.7-.798.899-.465.364-1.113.384-1.591.761-.385.292-.64.713-1.09.932-.648.307-1.442.25-2.122.405-.774.19-1.54.506-2.357.563-.83.044-1.636-.118-2.341-.025-.142.033-.276.045-.417.077-.033.008-.057.008-.098.012-.348.07-.704.13-1.028.223-.742.227-1.495.664-2.382.753-.858.077-1.737-.032-2.584 0-.603.013-1.203.013-1.81.013-.106.02-.215.064-.328.064-.126 0-.251-.04-.377-.06h-.065c-1.069.016-2.094.17-3.106.214a28.57 28.57 0 00-3.054.332c-.903.138-1.815.138-2.698.175-.903.02-1.806-.154-2.685-.175-.624 0-.624.065-1.263.065-.73 0-1.511.045-2.325.235-.92.199-1.851.28-2.831.401-1.134.122-2.256.284-3.301.685-.592.23-1.106.498-1.693.64-.373.356-.721.757-1.163.923-.704.275-1.652-.008-2.365.283-.696.304-1.462.56-2.159.883-.672.337-.943 1.47-1.616 1.84-.79.457-1.72.712-2.547 1.085-.83.384-1.612.91-2.467 1.255-.838.344-1.786.397-2.624.737-.863.353-1.734.632-2.556 1.013-.846.376-1.725.652-2.515 1.118-.73.42-1.51.74-2.248 1.13-.753.417-1.243 1.328-2 1.705-.754.393-1.479.838-2.24 1.199-.758.356-1.734.307-2.5.664-.773.344-1.368 1.13-2.15 1.434-.786.344-1.6.603-2.382.927-.785.288-1.676.369-2.478.648-.673.231-1.398.458-2.102.624-.697.182-1.535-.26-2.24-.101-.713.141-1.296.907-2 1.057-.714.17-1.402.344-2.103.559-.786.226-1.527.478-2.256.765-.753.284-1.677.118-2.438.401-.757.292-1.486.571-2.276.798-.822.215-1.478 1.012-2.297 1.268-.814.255-1.697.303-2.507.583-.822.26-1.652.453-2.474.709-.806.275-1.592.538-2.422.81-.806.259-1.669.397-2.483.648-.822.255-1.62.6-2.438.822-.814.235-1.596.668-2.434.859-.839.186-1.67.473-2.524.615-.814.146-1.616.15-2.39.3-.813.17-1.611.271-2.405.421-.798.186-1.685-.04-2.483.126-.798.178-1.519.55-2.325.725-.798.154-1.55.55-2.333.704-.81.146-1.591.47-2.381.6-.802.142-1.648-.02-2.463.105-.838.081-1.753-.21-2.547.02-.798.243-1.373 1.106-2.15 1.402-.758.271-1.536.623-2.31.92-.785.266-1.591.57-2.397.785-.806.206-1.725-.421-2.564-.357-.854.07-1.677.584-2.54.628-.862.053-1.725.118-2.575.158-.863.037-1.71.154-2.564.207-.863.008-1.733-.17-2.596-.15-.863.024-1.717-.138-2.564-.138-.846 0-1.721.263-2.576.235-.862-.008-1.725-.142-2.588-.162-.862-.032-1.725.454-2.588.433-.846-.06-1.685-.668-2.547-.712-.847-.057-1.762.47-2.6.388-.863-.077-1.71-.13-2.589-.226-.846-.09-1.668-.54-2.523-.64-.782-.106-1.551-.094-2.325-.114-.777-.032-1.551.012-2.333.02-.777.009-1.6-.635-2.365-.595-.786.049-1.535.36-2.32.401-.79.04-1.556.336-2.342.348-.79.04-1.563-.413-2.349-.413-.765-.012-1.571.794-2.357.754-.765-.065-1.527-.584-2.309-.721-.887-.17-1.798-.284-2.673-.494-.862-.24-1.685-.438-2.62-.333-.814.094-1.819-.206-2.665.094-.798.287-1.438 1.032-2.2 1.454-.773.409-2.664-1.317-3.312-.83-.786.578-1.17 2.016-2.05 1.87-5.237-.862-1.425.867-2.454 1.037-1.057.17-1.896.154-2.758.272-.628.06-1.584-.316-2.208.182-.538.433-.49 1.608-.988 2.126-.563.58-1.64.58-2.066.964-.563.494-.887 1.3-1.502 1.79-.587.486-1.235.896-1.884 1.325a9.595 9.595 0 01-2.04.907c-.774.247-1.447.502-2.16.713-.672.182-1.425-.656-2.098-.186-.712.47-1.336 1.09-1.927 1.7-.588.616-.786 1.67-1.467 2.155-.648.454-1.786.251-2.75.543-.83.26-1.693.34-2.571.47-.98.158-1.835.389-2.633.36-.879-.012-1.875.26-2.754-.04-1.13-.373-1.827-1.794-3.127-1.62-.559.077-.348-.004-.624.445-.372.612-.291.936-1.09 1.02-.181.021-.372-.023-.554-.056.11.097.215.207.324.284.729.526 1.612.814 2.309 1.32.729.506 1.328 1.187 2.04 1.685.722.518 1.6.757 2.334 1.264.72.506 1.06 1.559 1.806 2.081.709.51 1.555.839 2.268 1.35.73.518 1.304 1.218 1.993 1.737.713.502 1.616.777 2.333 1.292.713.51 1.685.648 2.422 1.174.72.51 1.162 1.39 1.85 1.908.738.53 1.576.927 2.305 1.454.75.51 1.612.822 2.35 1.349.64.461 1.247.947 1.858 1.397a1.49 1.49 0 01.235-.158c.215-.057.39-.053.596-.142.21-.117.474-.206.7-.162.231.045.357.292.58.324.198.024.332-.073.514-.121.555-.203 1.154-.276 1.725-.39a4.8 4.8 0 001.402-.416c.3-.158.64-.612.98-.584.202.02.53.24.733.3.656.166 1.029 0 1.6-.255.79-.344 1.915-.344 2.762-.389.251-.008.559-.02.814-.093.202-.069.308-.251.474-.324.15-.065.283-.065.433-.065.912.033 1.807.04 2.714.04h1.061c.441 0 1.304.187 1.693-.04.389-.162.482-.526.923-.603.39-.045.778.02 1.167 0 .506-.025.98-.207 1.462-.292.547-.097 1.09.162 1.604-.04.23-.081.142-.094.28-.276.283-.324.724-.308 1.162-.441.174.316.474.178.713.328.36.19.542.247.972.295.473.025.947.07 1.413.013.636-.061 1.284-.134 1.94-.081.365.02.713.174 1.086.222.17.025.599.102.757 0 .142-.085.142-.235.292-.336.324-.19.498.195.745.316.356.182 1.004.284 1.393.312.474.085.948.105 1.438.182.457.07.956.077 1.434.158.226.057.988 0 .988.38 0 .021-.863.232-.972.252-.454.093-.968.053-1.418.15-.457.085-.87.352-1.32.441-.466.09-.944.146-1.393.26-.855.17-1.835.012-2.73.085-.539.044-1.22-.199-.94.579-.348-.077-.968.433-1.385.486a17.1 17.1 0 00-1.786.28c-.24.076-.413.242-.652.311-1.215.324-2.475.324-3.613.96-.474.267-.688.336-1.251.336-.434 0-.863 0-1.272-.012-.324 0-.389.02-.604.154-.664.356-1.105.826-1.875 1.045-.235.073-.64.223-.875.223-.065 0-.595-.243-.636-.098-.06.268-.166.227-.45.284-.258.06-.522.097-.789.178-.437.122-.778.474-1.211.612a3.445 3.445 0 01-1.122.178c-.32-.012-.644-.178-.952-.04-.077.04-.085.218-.125.222-.134.053-.255.02-.397.053-.101.032-.515.032-.567.105-.174.154.028.328-.081.49-.077.162-.482.26-.64.304-.442.162-.988.057-1.418.23-.235.082-.433.207-.631.329.364.3.737.591 1.121.87.754.503 1.6.871 2.33 1.394.74.514 1.684.733 2.41 1.251.712.503 1.1 1.438 1.773 1.981.069-.032.15-.081.223-.105.526-.138 1.057.016 1.588-.004.607-.045.963-.369 1.502-.604.648-.239.632.13 1.126.324.324-.25.275-.705.385-1.061.097-.255-.016-.19.19-.417.458-.515 1.146-.292 1.685-.575.413-.223.482-.814.887-1.05.45-.206 1.07-.526 1.576-.627.623-.11 1.312.138 1.863-.267.348-.24.206-.539.437-.77.324-.32.972-.437 1.41-.636.725-.352 1.389-.968 2.077-1.3.397-.182.887-.291 1.292-.462.417-.198.855-.336 1.28-.526.405-.174.847-.304 1.272-.486.445-.195.863-.324 1.292-.498.433-.183.648-.689 1.073-.85.438-.159 1.053-.041 1.49-.175.434-.146.948-.146 1.398-.271.43-.158.68-.689 1.142-.806 1.122-.32 2.252.526 3.297.089.903-.389 1.494-1.628 2.547-1.628.19.024.381-.013.555.024.22.02.434.101.689.077.417-.028.822-.24 1.264-.3.405-.06.781-.06 1.202.016.39.098.79.045 1.187.11.64.117 1.312.198 1.924.073.316-.053.498-.11.814-.11.356.025.774-.044 1.073.073.304.11.53.243.912.284.514.04 1.028.105 1.567.186.365.04.972-.162 1.312.093.174.138.085.207-.064.365-.183.145-.373.283-.568.445-.315.251-.664.49-1.162.668-.43.183-.879.365-1.369.519-.486.138-.822.611-1.276.75-.514.145-1.097.088-1.486.262-.389.203-.847.328-1.235.507-.41.202-.6.644-1.03.846-1.255.616-3.503 1.551-4.88.952-.028.182-.028.385-.052.583-.413-.024-.263.223-.365.47-.105.247-.125.38-.3.648-.332.527-.712.356-1.21.539-.523.202-.972.725-1.475 1.032-.36.231-.858.337-1.24.555-.372.227-.372.835-.736 1.074-.365.239-.822.368-1.163.607-.364.263-.931.284-1.296.502-.364.26-.737.486-1.118.713-.34.26-.384.766-.733 1.033-.777.539-1.478 1.025-2.438 1.025-.672 0-1.138-.272-1.596.4-.239.345-.121.847-.356 1.15-.065.102-.571.268-.72.422-.45.442-.54 1.199-1.038 1.592-.53.409-1.195.603-1.628 1.093-.283.308-.332.847-.603 1.195-.183.235-.41.353-.648.425.587.329 1.178.64 1.717 1.025.745.53 1.644.782 2.398 1.308.74.527 1.535.956 2.247 1.495.725.486 1.264 1.324 2.01 1.855.724.506 1.388 1.118 2.126 1.636.032.012.056.012.08.033.187-.252.345-.535.551-.778.28-.312.896-.438 1.171-.782.263-.324.563-.603.838-.935.28-.32.13-.843.413-1.167.515-.575 1.463-.28 1.953-.765.546-.543-.029-1.612.461-2.123.284-.336.839-.494 1.122-.802.284-.307.373-.749.648-1.06.458-.499 1.394-.304 1.503-1.102.073-.498-.442-1.624.413-1.746.689-.11 1.09.442 1.588-.19.461-.608.87-1.256 1.49-1.782.178-.158.417-.195.624-.332.15-.11.235-.272.356-.393.316-.3.79-.519 1.223-.523.296-.02.486.016.713-.13.207-.15.272-.429.58-.388.068-.592.076-.907.425-1.414.15-.263.247-.287.461-.49.377-.38.56-.846.948-1.187.316-.283.413-.757.73-1.028.34-.284.93-.373 1.27-.652.341-.28.888-.381 1.228-.656.324-.284.425-.75.758-1.025.453-.377.34-.377.413-1 .591-.061 1.138.161 1.668.125.422-.036.397-.126.539-.506.032-.126.053-.28.117-.41.324-.74 1.13-.7 1.702-1.133.364-.247.664-.56 1.036-.782.175-.134.365-.36.539-.53.174-.15.26-.422.49-.54.26-.137.705-.076.996-.02.555.122.839.547 1.394.547.457-.028.907-.162 1.36-.206.15 0 .22-.07.37-.012.206.08.206.315.453.4.324.102.623-.04.947 0 .292.057.596.167.887.22.54.052 1.09.161 1.637.161.275.02.753-.154 1.004 0 .049.049.09.073.114.118.4.461-.503 1.336-.652 1.737-.142.344-.19.73-.349 1.114-.117.356.174.81.033 1.175-.3.79-1.32 1.105-2.05 1.154a1.34 1.34 0 000 .737c.13.3.628.324.58.83-.025.357-.434.523-.515.924-.073.376.142.708.024 1.13-.133.49-.429 1.28-.648 1.757-.158.385-.437.948-.729 1.232-.324.344-.563.202-.972.3-1.284.311-.089 1.194-.364 1.927-.166.454-.563.887-.397 1.414.089.352.324.543.389.911.064.292.04.616-.04.9-1.155.161-1.43-.313-1.678 1.012-.093.563-.243.903-.567 1.324-.429.58-.445 1.098-.737 1.69-.158.335-.283.712-.441 1.06-.199.373-.754.588-.928.964-.3.587-.753 1.098-.996 1.697-.166.344-.199.911-.514 1.114-.45.324-1.078-.069-1.41.446-.34.461.113 1.085.239 1.518.15.56.235.85-.09 1.385-.299.543-1.004.665-1.247 1.171-.19.324-.23.75-.396 1.094-.183.336-.365.704-.555 1.04-.179.357-.118.77-.3 1.13-.166.353-.55.628-.741.977-.158.336.06.826-.122 1.174-.182.336-.567.64-.74.992-.159.357-.629.624-.807.98-.121.227-.146.507-.19.766.308.324.607.648.972.9.75.57 1.478 1.17 2.215 1.729.758.538 1.851.64 2.625 1.186.761.551 1.45 1.207 2.199 1.758.745.583 1.434 1.22 2.183 1.798.77.551 1.466 1.207 2.2 1.766.663.474 1.376.883 2.04 1.373a63.595 63.595 0 001.94 1.49c.632.511 1.463.774 2.119 1.256.745.547 1.486 1.053 2.24 1.58.704.498 1.36 1.045 2.049 1.523.016-.134-.008-.272.008-.385 1.029-.049.757-.389 1.296-1.138.182-.28.672-.68 1.013-.7.068-.438-.19-.69-.316-1.074-.106-.365-.025-.527 0-.928.016-.312-.106-.668-.142-.972-.138-.74-.23-1.421.158-2.098.202-.364.316-.68.474-1.065.223-.587.243-1.061.409-1.648.065-.296.364-.53.287-.9-.04-.157-.174-.263-.19-.45a1.71 1.71 0 01-.008-.497c.024-.203.008-.766.093-.96.065-.146.304-.207.38-.377.066-.158.009-.336.009-.482.032-.441.182-.4.555-.595.259-.146.64-.296.522-.652-.15-.36-.595-.45-.81-.733-.158-.219-.559-.88-.51-1.167.06-.648.26-.927.344-1.474.04-.389.62-1.025.644-1.272.069-.368-.478-.802-.34-1.616-.016-.137.024-.624.085-1.024.024-.349.603-.928.62-1.122.141-.701-.373-1.22-.28-1.872.049-.311.24-.587.446-.81.069-.097.676-.396.692-.453.073-.235-.141-.53-.1-.693.007-.093.238-.28.23-.324-.024-.32-.255-.502-.316-.79-.065-.263.045-.522-.016-.761-.09-.308-.49-.352-.612-.624-.11-.25.097-.794.134-1.077.04-.462.19-.859.198-1.223 0-.276.308-.588.39-.85.133-.434.299-1.05.19-1.491-.065-.268-.24-.324-.3-.527-.15-.457.202-.81.21-1.207.017-.413.166-.777.122-1.012.028-.45-.53-.648-.547-1.05.033-.425.276-.825.276-1.174-.04-.178-.04-.49-.04-.729.031-.385-.086-.863-.102-.96-.008-.389-.069-.818-.077-1.118-.024-.263.332-.83.3-1.21-.025-.248-.231-.32-.223-.584.016-.202.158-.385.255-.547.069-.141.126-.324.21-.441.138-.105.304-.122.414-.239-.134-.21-.422-.13-.596-.304-.186-.146-.141-.23-.202-.43-.024-.076.02-.157.016-.246-.04-.11-.166-.097-.215-.21-.089-.232-.056-.47-.182-.66-.11-.191-.437-.236-.45-.5-.08-.335.345-.732.308-.959-.056-.296-.34-.559-.429-.774-.04-.4-.324-.708-.373-.94-.085-.287.154-.412.073-.838a5.514 5.514 0 00-.174-.87c-.101-.357-.539-.357-.624-.669-.125-.117-.247-.397-.372-.615-.101-.369.065-.68-.057-.948-.158-.085-.3-.365-.441-.664-.166-.195-.616-.316-.34-.567.15-.126.481-.126.688-.138.275-.008.539.053.798.065.275 0 .563-.045.822 0 .437.089.697.271 1.154.267.422-.02 1.03.045 1.434-.06.19-.05.26-.22.45-.28.563-.154 1.138.344 1.676.437.373.081.762.081 1.143.081.417 0 .846.029 1.255 0 .276-.012.506-.133.778-.166.798-.15 1.73-.052 2.576-.11.141 0 .263-.06.413-.023.393.08.648.522.988.749.275.158.608.267.83.462.065.064.102.13.166.186.183.158.405.34.624.502.166.101.348.138.514.243.3.182.515.446.802.624.34.202.56.656.932.79.364.158.83 0 1.203.218.198.11.182.207.291.393.248.417.54.494.944.697.417.206.466.162.506.583.029.19 0 .41 0 .591 0 .377-.016.774 0 1.134.243.061.733-.085.956.045.102.069.183.312.308.401.3.239.721.255 1.029.478.247.174.53.506.729.745.194.219.409.344.607.668.215.3.15.612.365.916.251.474.729.761.83 1.26.11.514.134 1.032.26 1.538.753.05 1.344 1.187 1.94 1.556.174.409.579.538.797.818.158.458.247.814.422 1.101.198.146.06.677.243.855.141.519.635.689.935 1.081.425.563-.016.819.016 1.394.029.235.142.182.183.364.052.158-.009.304.02.47.057.348.239.413.453.685.207.275.482.923.839 1.057.275.105.615-.264.854-.033.126.101.061.288.11.413.08.195.283.349.364.494.158.32.11.612.025.977-.15.656-.033 1.085.392 1.547.43.421.54.96.835 1.482.178.312.243.676.45 1.211.157.24.583.64.749.964.145.275.372.47.19.761.215.126.462.264.58.486.084.118-.009.227.1.365.15.182.563.142.73.304.076.085.076.206.117.316.514-.381 1.037-.766 1.551-1.159.753-.57 1.568-1.053 2.293-1.644.753-.567 1.324-1.373 2.057-1.94.737-.575 1.466-1.154 2.215-1.734.746-.575 1.67-.919 2.398-1.478.737-.563 1.337-1.276 2.066-1.839.725-.538 1.612-.834 2.357-1.373.409-.303.75-.7 1.106-1.09-.3-.173-.6-.364-.806-.663-.264-.381-.256-.843-.349-1.28-.15-.867-.632-.855-1.219-1.393-.308-.268-.356-.648-.514-1-.357-.746-.988-.463-1.677-.673-.356-.11-.316-.203-.4-.515a11.244 11.244 0 01-.325-1.36c-.049-.308-.239-.474-.405-.713-.117-.166-.089-.264-.308-.353-.133-.052-.34.065-.453-.048-.085-.09.024-.288-.008-.393-.324-.7-1.365-.547-1.843-1.122-.093-.126-.093-.288-.183-.389-.117-.117-.34-.166-.409-.287-.089-.098-.255-.94-.19-.92-.563-.101-1.114.142-1.527-.182-.332-.263-.632-.547-.988-.814-.365-.243-.988-.23-1.361-.49-.348-.247-.672-.551-1.02-.786-.592-.373-.572-.879-1.305-1.004-.474-.061-1.06.08-1.494-.15-.863-.45-.122-1.325-.34-1.928-.49-.04-2.115.466-2.09-.239-1.114-.053-2.066-.567-3.07-.968-.766-.312-1.422-.446-2.05-1.045-.227-.223-.275-.235-.25-.62-.779.474-2.042-.032-2.816-.239-.453-.133-.968-.097-1.41-.218-.323-.061-.49-.3-.769-.385-.259-.085-.806.024-.988-.219-.292-.4.988-.417 1.243-.441.34-.049.648-.203.997-.292.615-.13 1.227-.158 1.85-.215.466-.044.928-.105 1.362-.291.19-.073.23-.138.473-.138.58-.032 1.138.065 1.718.085.3 0 .631-.04.927-.117.267-.085.543-.04.843-.053.239-.036.53-.065.777-.077.608-.06 1.248 0 1.867-.117.093 0 .26-.07.373-.025.15.025.101.187.19.268.11.089.3.121.45.198.117.045.235.162.389.203.376.121.923.324 1.328.413.442.073.9-.215 1.345-.162.466.052.948.016 1.43.073.465.089.972-.02 1.441.056.458.094.823.576 1.264.657.474.097 1.029-.203 1.495-.106.453.093.814.482 1.275.575.466.11 1.013-.016 1.454.09.466.12.895-.013 1.37.052.299.069.538.332.862.15-.024.77 1.584 1.575 2.207 1.673.592.121 2.082.4 2.58-.106.632.551-.024.818.972.904 1.005.105 1.568.518 2.45.915.406.162.762.433 1.187.628.414.19.73.47 1.139.648.303.125.538.21.834.202.275-.024.664-.202.94-.036.182.121.08.162.166.34.125.243.413.644.664.77.372.218.854.048 1.243.263.385.19.717.474 1.13.696.389.22.563.669.932.895.397.207 1.069.126 1.45.345.348.202.465.632.765.875.587-.426 1.163-.851 1.774-1.264.73-.523 1.32-1.3 2.066-1.81.74-.54 1.66-.851 2.393-1.378.762-.526 1.608-.89 2.358-1.433.279-.203.506-.503.737-.794-.284-.11-.584-.199-.839-.332-.024 0-.648-.47-.648-.288-.073-.944-.862-.68-1.527-.737-.38-.032-.595-.251-.955-.369-.462-.141-.952.02-1.426-.13-.389-.117-.863-.465-.879-.902-.583-.061-1.114-.081-1.677-.017-.567.045-1.677-.117-2.159-.372-.57-.26-.64-1.061-1.287-1.231-.653-.179-1.078.311-1.685.457-.673.17-1.195-.368-1.892-.328-.498 0-.96-.02-1.45-.182-.235-.085-.3.06-.474-.182-.125-.162-.048-.393-.085-.596-.636-.052-1.275.09-1.932.09-.441 0-.895.097-1.304-.025-.38-.097-.77-.563-1.178-.539-.158.02-.272-.08-.438-.158-.194-.064-.425-.064-.64-.145-.465-.061-.931-.126-1.385-.17-.417-.025-.7-.077-1.122.032-.38.117-.749.324-1.154.3-.421-.04-.664-.47-1.02-.62-.414-.186-.92-.113-1.337-.15-.458-.044-.903-.077-1.353-.044-.64.02-1.268 0-1.891.068-.474-.024-.896 0-1.353.013-.182-.049-.332-.118-.515-.085-.109-.033-.631 0-.68-.114 0-.077 0-.077.024-.077.102-.186.49-.162.632-.162.255-.121.482-.121.737-.121.207-.049.3-.15.474-.203.174-.097 1.503-.267 1.693-.324.215-.057.332-.101.539-.162.239.024.538.227.753.097.36-.141.535-.259.9-.222.364.036.797.397 1.145.311.256-.15.486-.064.754-.182.364-.048.704-.08 1.09-.13.485-.012.935.05 1.409-.056.49-.085 1.037.077 1.527-.065.42-.117.688-.518 1.138-.506.421 0 .887.291 1.328.352.494.049 1 .122 1.507.162.664.061 1.304-.08 1.976-.044.434-.025.9.004 1.361.036.393.008.839-.105 1.223 0 .34.085.58.466.944.519.324.052.267-.175.458-.26.174-.089.364-.069.555-.15.008-.064.032-.109.032-.17.798-.121 1.446.43 2.228.43.445 0 .919 0 1.369.064.826.138 1.814-.15 2.515-.562.563-.345.826-.235 1.348.068.45.264.85.32 1.43.231.595-.085.648.806 1.195.912.215.032.206-.106.38-.146.418-.195.807-.203 1.224-.13.498.09.952.024 1.482.045.442.024.855.291 1.304.364.45.069.924.101 1.377.162.41.081.855.057 1.248.118.073 0 .364.044.397.048.166.118.016.203.117.32.38.466.737.142 1.187.033.498-.118 1.053-.114 1.583-.077.183.032.308.036.426.077.478-.39.935-.794 1.425-1.143.73-.526 1.52-.968 2.248-1.514.717-.551 1.195-1.446 1.912-1.997.737-.535 1.45-1.122 2.183-1.628.729-.547 1.584-.916 2.305-1.43.725-.53 1.377-1.162 2.134-1.673.745-.526 1.462-1.09 2.207-1.608.782-.534 1.819-.668 2.564-1.215.757-.538 1.486-1.15 2.232-1.705.74-.534 1.478-1.162 2.199-1.709.741-.591 1.353-1.345 2.07-1.895.72-.604 1.474-1.155 2.19-1.738.738-.6 1.483-1.183 2.2-1.766.713-.591 1.701-.85 2.39-1.446.704-.579 1.21-1.45 1.923-2.065.697-.592 1.479-1.078 2.208-1.66.733-.556 1.555-.949 2.325-1.398.781-.502 1.328-1.345 2.15-1.77.798-.45 1.774-.583 2.564-1.09.782-.494 1.446-1.174 2.215-1.697.774-.522 1.462-1.166 2.216-1.705.757-.538 1.826-.648 2.568-1.207a86.614 86.614 0 002.231-1.68c.746-.576 1.345-1.37 2.082-1.932.741-.576 1.653-.904 2.39-1.475.749-.563 1.13-1.624 1.867-2.175.688-.526 1.555-.79 2.26-1.284.696-.51 1.41-1.016 2.098-1.522.688-.507 1.247-1.215 1.92-1.738.696-.49 1.482-.907 2.179-1.393.684-.539 1.38-1.05 2.077-1.568.697-.514 1.284-1.178 1.965-1.689.692-.506 1.539-.806 2.235-1.332.68-.498 1.402-.984 2.106-1.486.782-.588 1.819-.786 2.593-1.37.777-.538 1.4-1.356 2.187-1.92.79-.558 1.587-1.109 2.385-1.68.802-.547 1.3-1.519 2.066-2.07.785-.595 1.964-.611 2.746-1.158.806-.575 1.478-1.308 2.26-1.875.802-.563 1.466-1.3 2.248-1.86.79-.566 1.668-.987 2.47-1.538.741-.515 1.32-1.284 2.062-1.81.729-.535 1.45-1.098 2.167-1.617.745-.53 1.806-.6 2.555-1.122.73-.526 1.495-1.032 2.248-1.539.73-.526 1.304-1.276 2.025-1.81.745-.527 1.268-1.381 2-1.928.738-.51 1.767-.624 2.516-1.154.721-.527 1.568-.92 2.288-1.434.742-.519 1.361-1.211 2.11-1.734.738-.538 1.284-1.344 2.026-1.883.729-.53 1.632-.798 2.373-1.336.616-.446 1.276-.871 1.9-1.309-.746-.474-1.47-.955-2.216-1.437" fill="#acd4f1"/><path d="M214.873 147.06c.117 1.426.15.56 1.02 1.673.624.826 1.479 1.41 2.24 2.054 1.029.854 1.86 1.9 2.823 2.815.855.797 1.75 1.142 2.665 1.818.421.316.397.433 1.013.486.538.053.688-.11.887.442.174.482-.016 1.032.239 1.478.194.352.757.713 1.033 1.04.818.953 1.575 1.949 2.365 2.925.777.944.911 1.15 1.134 2.305.251 1.348.798 1.733 1.369 2.867.441.838.948 1.669 1.523 2.207.834.68 1.41.758 1.774 1.9.283.911.364 2.033.623 3.05.215.85.3 1.656.68 2.325.382.724.904 1.336 1.354 1.992a29.07 29.07 0 011.275 2.013c.41.68.814 1.401 1.187 2.037.385.701.988 1.276 1.373 1.993.47.842.17 1.41.38 2.272.122.49.523.571.778.895.134.174.15.421.276.604.3.409.765.668 1.053 1.13.275.466.425 1.012.68 1.498.349.71.75 1.426 1.098 2.139.364.725.688 1.474 1.045 2.142.348.742.83 1.37 1.195 2.098.222.486.413.64.737.936.417.356.498.243.522.92.053.971.567 1.559.98 2.397.373.684.71 1.405 1.074 2.114.324.628.672 1.292.943 1.94.22.53.009 1.122.227 1.628.263.567 1.102.551 1.385 1.102.28.523.422 1.418.624 2.013.612 1.689 1.252 3.09 2.195 4.61.385.623.3 1.323.575 1.96.349.769.482 1.506.604 2.328.142 1.227.26 2.503 1.09 3.402.704.762 1.741 1.05 2.43 1.88.275.287.315.753.433 1.122.753 2.349 1.932 4.123 3.827 5.415 2.09 1.393 3.212 4.333 4.528 6.488.814 1.284 2.5.842 3.488 1.94.15.227.332.98.45 1.203.34.616.935 1.357 1.368 1.9 1.013 1.312 2.73 1.838 3.917 2.907.947.851 1.437 1.88 2.15 2.925.721 1.065 1.56 1.648 2.714 2.098 1.628.623 3.212 1.312 4.82 1.992.866.337 1.761.608 2.665.863.599.15 1.77.263 2.243.616.746.583 1.078 1.757 2.042 2.373 1.49.9 3.52.668 4.678 2.086.133.162.125.441.275.583.142.126.348.033.498.126.247.162.523.413.737.627.883.916 1.17 1.426.535 2.572-.203.36-.267.669-.717.818-.081.025-.166.025-.255.029a76.925 76.925 0 00-1.754-.762c-.713-.32-1.567-.36-2.32-.631-.742-.248-1.487-.54-2.277-.754-.729-.206-1.417-.482-2.126-.688-.721-.195-1.551-.077-2.256-.316-.73-.227-1.519-.292-2.207-.58-.697-.27-1.17-1.069-1.819-1.4-.664-.35-1.377-.612-2-1.034-.681-.477-1.386-.907-2.014-1.413-.631-.502-1.373-.887-2.017-1.414-.615-.518-.947-1.474-1.636-1.936-.697-.425-1.527-.465-2.074-.895-.526-.441-1.012-.988-1.51-1.648-.49-.664-1.163-.988-1.669-1.47-.506-.515-.79-1.276-1.369-1.827-.591-.559-.948-1.247-1.39-1.895-.42-.665-1.036-1.143-1.575-1.75-1.012-1.15-2.79-.911-4.143-1.486-.514-.227-1.077-.397-1.608-.604a78.73 78.73 0 00-3.536-2.884c-2.531-1.92-4.16-4.196-5.52-6.974-1.203-2.454-2.041-4.99-3.633-7.27-.83-1.337-1.685-2.718-2.216-4.245-.526-1.466-.384-2.51-1.296-3.73-.579-.948-.947-1.377-1.243-2.418-.308-.952-1.207-1.365-1.454-2.353-.433-.798-.182-1.855-.632-2.758-.3-.575-1.012-.964-1.377-1.54-.798-.635-1.26-1.648-1.96-2.397-.312-.251-.818-.559-1.086-.729-1.113-1.296-1.369-2.317-1.94-3.706-.235-.883-1.936-2.827-2.815-3.033-1.186-.458-1.968-.134-1.915-1.633.032-1.122.34-1.972-.353-2.985-.239-.344-.563-.445-.729-.733-.79-1.134-1.138-2.357-1.826-3.576-.397-.474-.887-.94-1.3-1.466-.292-.474-1.013-.839-1.163-1.519-.457-1.166-.19-2.58-.174-3.71.073-1.604-1.272-2.345-2.442-3.155-.956-.753-1.645-1.871-2.191-2.863-.405-.94-.73-1.677-1.313-2.427-.903-1.348-2.162-2.486-2.737-4.074-.316-.494-.365-1.175-.79-1.66-.397-.377-1.037-.458-1.325-.952-.822-1.187-.964-2.678-1.778-3.767-.814-1.17-1.45-1.734-1.628-3.11-.312-2.99-2.025-5.12-3.491-7.716-.757-1.466-.713-.045-1.786-1.337-.53-.542 2.373-.376 2-1-.166-.478 1.22-.636.798-1.102l3.301-1.3.45.515z" fill="#acd4f1"/></g></svg>